{
  "accessors": [
    {
      "bufferView": 2,
      "componentType": 5126,
      "count": 18324,
      "max": [
        1501.7298583984375,
        1514.6258544921875,
        1125.669677734375
      ],
      "min": [
        -1904.9945068359375,
        -1527.1112060546875,
        7.397125244140625
      ],
      "type": "VEC3"
    },
    {
      "bufferView": 2,
      "byteOffset": 219888,
      "componentType": 5126,
      "count": 18324,
      "max": [
        0.9433519840240479,
        0.9433062672615051,
        0.9447665214538574
      ],
      "min": [
        -0.0006865561008453369,
        -0.00011647494102362543,
        -0.0018099767621606588
      ],
      "type": "VEC3"
    },
    {
      "bufferView": 1,
      "componentType": 5126,
      "count": 18324,
      "max": [
        0.9961241483688354,
        1.9961241483688354
      ],
      "min": [
        0.002929776906967163,
        1.0029298067092896
      ],
      "type": "VEC2"
    },
    {
      "bufferView": 1,
      "byteOffset": 146592,
      "componentType": 5126,
      "count": 18324,
      "max": [
        1527.1112060546875,
        1905.9945068359375
      ],
      "min": [
        -1514.6258544921875,
        -1500.7298583984375
      ],
      "type": "VEC2"
    },
    {
      "bufferView": 1,
      "byteOffset": 293184,
      "componentType": 5126,
      "count": 18324,
      "max": [
        1501.7298583984375,
        1528.1112060546875
      ],
      "min": [
        -1904.9945068359375,
        -1513.6258544921875
      ],
      "type": "VEC2"
    },
    {
      "bufferView": 1,
      "byteOffset": 439776,
      "componentType": 5126,
      "count": 18324,
      "max": [
        1501.7298583984375,
        1528.1112060546875
      ],
      "min": [
        -1904.9945068359375,
        -1513.6258544921875
      ],
      "type": "VEC2"
    },
    {
      "bufferView": 1,
      "byteOffset": 586368,
      "componentType": 5126,
      "count": 18324,
      "max": [
        1.0,
        2.0
      ],
      "min": [
        -1.0,
        0.0
      ],
      "type": "VEC2"
    },
    {
      "bufferView": 1,
      "byteOffset": 732960,
      "componentType": 5126,
      "count": 18324,
      "max": [
        0.0,
        1.0
      ],
      "min": [
        0.0,
        1.0
      ],
      "type": "VEC2"
    },
    {
      "bufferView": 1,
      "byteOffset": 879552,
      "componentType": 5126,
      "count": 18324,
      "max": [
        0.999984622001648,
        1.999984622001648
      ],
      "min": [
        -0.999984622001648,
        1.537799835205078e-05
      ],
      "type": "VEC2"
    },
    {
      "bufferView": 1,
      "byteOffset": 1026144,
      "componentType": 5126,
      "count": 18324,
      "max": [
        0.0,
        1.0
      ],
      "min": [
        0.0,
        1.0
      ],
      "type": "VEC2"
    },
    {
      "bufferView": 0,
      "componentType": 5125,
      "count": 18324,
      "type": "SCALAR"
    },
    {
      "bufferView": 2,
      "byteOffset": 439776,
      "componentType": 5126,
      "count": 10320,
      "max": [
        328.488525390625,
        681.4014282226563,
        321.1917724609375
      ],
      "min": [
        -273.96728515625,
        -681.4022827148438,
        205.50950622558594
      ],
      "type": "VEC3"
    },
    {
      "bufferView": 2,
      "byteOffset": 563616,
      "componentType": 5126,
      "count": 10320,
      "max": [
        0.9374415874481201,
        0.8812447786331177,
        0.9074981212615967
      ],
      "min": [
        -1.4827845006948337e-05,
        -7.020682096481323e-05,
        -4.727765917778015e-05
      ],
      "type": "VEC3"
    },
    {
      "bufferView": 1,
      "byteOffset": 1172736,
      "componentType": 5126,
      "count": 10320,
      "max": [
        0.9863582253456116,
        1.997100830078125
      ],
      "min": [
        0.0,
        1.0
      ],
      "type": "VEC2"
    },
    {
      "bufferView": 1,
      "byteOffset": 1255296,
      "componentType": 5126,
      "count": 10320,
      "max": [
        681.4022827148438,
        274.96728515625
      ],
      "min": [
        -681.4014282226563,
        -327.488525390625
      ],
      "type": "VEC2"
    },
    {
      "bufferView": 1,
      "byteOffset": 1337856,
      "componentType": 5126,
      "count": 10320,
      "max": [
        328.488525390625,
        682.4022827148438
      ],
      "min": [
        -273.96728515625,
        -680.4014282226563
      ],
      "type": "VEC2"
    },
    {
      "bufferView": 1,
      "byteOffset": 1420416,
      "componentType": 5126,
      "count": 10320,
      "max": [
        328.488525390625,
        682.4022827148438
      ],
      "min": [
        -273.96728515625,
        -680.4014282226563
      ],
      "type": "VEC2"
    },
    {
      "bufferView": 1,
      "byteOffset": 1502976,
      "componentType": 5126,
      "count": 10320,
      "max": [
        1.0,
        2.0
      ],
      "min": [
        -1.0,
        0.0
      ],
      "type": "VEC2"
    },
    {
      "bufferView": 1,
      "byteOffset": 1585536,
      "componentType": 5126,
      "count": 10320,
      "max": [
        0.0,
        1.0
      ],
      "min": [
        0.0,
        1.0
      ],
      "type": "VEC2"
    },
    {
      "bufferView": 1,
      "byteOffset": 1668096,
      "componentType": 5126,
      "count": 10320,
      "max": [
        0.999984622001648,
        1.999984622001648
      ],
      "min": [
        -0.999984622001648,
        1.537799835205078e-05
      ],
      "type": "VEC2"
    },
    {
      "bufferView": 1,
      "byteOffset": 1750656,
      "componentType": 5126,
      "count": 10320,
      "max": [
        0.0,
        1.0
      ],
      "min": [
        0.0,
        1.0
      ],
      "type": "VEC2"
    },
    {
      "bufferView": 0,
      "byteOffset": 73296,
      "componentType": 5125,
      "count": 10320,
      "type": "SCALAR"
    },
    {
      "bufferView": 2,
      "byteOffset": 687456,
      "componentType": 5126,
      "count": 87,
      "max": [
        754.7071533203125,
        122.23271179199219,
        565.696533203125
      ],
      "min": [
        440.1125183105469,
        -136.00758361816406,
        355.26116943359375
      ],
      "type": "VEC3"
    },
    {
      "bufferView": 2,
      "byteOffset": 688500,
      "componentType": 5126,
      "count": 87,
      "max": [
        0.7200809717178345,
        0.7869614362716675,
        0.7933201193809509
      ],
      "min": [
        0.40387725830078125,
        0.00510135293006897,
        0.46164581179618835
      ],
      "type": "VEC3"
    },
    {
      "bufferView": 1,
      "byteOffset": 1833216,
      "componentType": 5126,
      "count": 87,
      "max": [
        0.2939542829990387,
        1.5420087575912476
      ],
      "min": [
        0.19434186816215515,
        1.384777307510376
      ],
      "type": "VEC2"
    },
    {
      "bufferView": 1,
      "byteOffset": 1833912,
      "componentType": 5126,
      "count": 87,
      "max": [
        0.6420913934707642,
        1.9845402240753174
      ],
      "min": [
        0.003891522064805031,
        0.015640854835510254
      ],
      "type": "VEC2"
    },
    {
      "bufferView": 1,
      "byteOffset": 1834608,
      "componentType": 5126,
      "count": 87,
      "max": [
        0.0,
        1.0
      ],
      "min": [
        0.0,
        1.0
      ],
      "type": "VEC2"
    },
    {
      "bufferView": 1,
      "byteOffset": 1835304,
      "componentType": 5126,
      "count": 87,
      "max": [
        0.5697450637817383,
        1.8720219135284424
      ],
      "min": [
        0.44222965836524963,
        1.798882246017456
      ],
      "type": "VEC2"
    },
    {
      "bufferView": 1,
      "byteOffset": 1836000,
      "componentType": 5126,
      "count": 87,
      "max": [
        136.00758361816406,
        -439.1125183105469
      ],
      "min": [
        -122.23271179199219,
        -753.7071533203125
      ],
      "type": "VEC2"
    },
    {
      "bufferView": 0,
      "byteOffset": 114576,
      "componentType": 5125,
      "count": 87,
      "type": "SCALAR"
    }
  ],
  "asset": {
    "extras": {
      "author": "42manako (https://sketchfab.com/42manako)",
      "license": "CC-BY-NC-4.0 (http://creativecommons.org/licenses/by-nc/4.0/)",
      "source": "https://sketchfab.com/3d-models/ka-50-akula-ussr-258648b9751747a38278f1d32b9a8837",
      "title": "Ka-50 Akula (USSR)"
    },
    "generator": "Sketchfab-17.20.0",
    "version": "2.0"
  },
  "bufferViews": [
    {
      "buffer": 0,
      "byteLength": 114924,
      "name": "floatBufferViews",
      "target": 34963
    },
    {
      "buffer": 0,
      "byteLength": 1836696,
      "byteOffset": 114924,
      "byteStride": 8,
      "name": "floatBufferViews",
      "target": 34962
    },
    {
      "buffer": 0,
      "byteLength": 689544,
      "byteOffset": 1951620,
      "byteStride": 12,
      "name": "floatBufferViews",
      "target": 34962
    }
  ],
  "buffers": [
    {
      "byteLength": 2641164,
      "uri": "scene.bin"
    }
  ],
  "extensionsUsed": [
    "KHR_materials_specular"
  ],
  "images": [
    {
      "uri": "textures/mat_68_baseColor.png"
    },
    {
      "uri": "textures/mat_67_baseColor.png"
    },
    {
      "uri": "textures/mat_66_baseColor.png"
    }
  ],
  "materials": [
    {
      "doubleSided": true,
      "extensions": {
        "KHR_materials_specular": {
          "specularColorFactor": [
            1.0,
            1.0,
            1.0
          ],
          "specularFactor": 0.0
        }
      },
      "name": "mat_68",
      "pbrMetallicRoughness": {
        "baseColorTexture": {
          "index": 0
        },
        "metallicFactor": 0.0,
        "roughnessFactor": 0.8211145618000169
      }
    },
    {
      "doubleSided": true,
      "extensions": {
        "KHR_materials_specular": {
          "specularColorFactor": [
            1.0,
            1.0,
            1.0
          ],
          "specularFactor": 0.0
        }
      },
      "name": "mat_67",
      "pbrMetallicRoughness": {
        "baseColorTexture": {
          "index": 1
        },
        "metallicFactor": 0.0,
        "roughnessFactor": 0.8211145618000169
      }
    },
    {
      "alphaMode": "BLEND",
      "doubleSided": true,
      "extensions": {
        "KHR_materials_specular": {
          "specularColorFactor": [
            1.0,
            1.0,
            1.0
          ],
          "specularFactor": 1.0
        }
      },
      "name": "mat_66",
      "pbrMetallicRoughness": {
        "baseColorFactor": [
          1.0,
          1.0,
          1.0,
          0.5409540295741854
        ],
        "baseColorTexture": {
          "index": 2
        },
        "metallicFactor": 0.0,
        "roughnessFactor": 0.0
      }
    }
  ],
  "meshes": [
    {
      "name": "mesh_400_mat_68_0",
      "primitives": [
        {
          "attributes": {
            "NORMAL": 1,
            "POSITION": 0,
            "TEXCOORD_0": 2,
            "TEXCOORD_1": 3,
            "TEXCOORD_2": 4,
            "TEXCOORD_3": 5,
            "TEXCOORD_4": 6,
            "TEXCOORD_5": 7,
            "TEXCOORD_6": 8,
            "TEXCOORD_7": 9
          },
          "indices": 10,
          "material": 0,
          "mode": 4
        }
      ]
    },
    {
      "name": "mesh_401_mat_67_0",
      "primitives": [
        {
          "attributes": {
            "NORMAL": 12,
            "POSITION": 11,
            "TEXCOORD_0": 13,
            "TEXCOORD_1": 14,
            "TEXCOORD_2": 15,
            "TEXCOORD_3": 16,
            "TEXCOORD_4": 17,
            "TEXCOORD_5": 18,
            "TEXCOORD_6": 19,
            "TEXCOORD_7": 20
          },
          "indices": 21,
          "material": 1,
          "mode": 4
        }
      ]
    },
    {
      "name": "mesh_402_mat_66_0",
      "primitives": [
        {
          "attributes": {
            "NORMAL": 23,
            "POSITION": 22,
            "TEXCOORD_0": 24,
            "TEXCOORD_1": 25,
            "TEXCOORD_2": 26,
            "TEXCOORD_3": 27,
            "TEXCOORD_4": 28
          },
          "indices": 29,
          "material": 2,
          "mode": 4
        }
      ]
    }
  ],
  "nodes": [
    {
      "children": [
        1
      ],
      "matrix": [
        1.0,
        0.0,
        0.0,
        0.0,
        0.0,
        2.220446049250313e-16,
        -1.0,
        0.0,
        0.0,
        1.0,
        2.220446049250313e-16,
        0.0,
        0.0,
        0.0,
        0.0,
        1.0
      ],
      "name": "Sketchfab_model"
    },
    {
      "children": [
        2
      ],
      "matrix": [
        0.009999999776482582,
        0.0,
        0.0,
        0.0,
        0.0,
        0.0,
        0.009999999776482582,
        0.0,
        0.0,
        -0.009999999776482582,
        0.0,
        0.0,
        0.0,
        0.0,
        0.0,
        1.0
      ],
      "name": "ka-50-akula.fbx"
    },
    {
      "children": [
        3,
        5,
        7
      ],
      "name": "RootNode"
    },
    {
      "children": [
        4
      ],
      "matrix": [
        5.482470989226878,
        -2.1349530263967307e-06,
        -2.902395975150872e-22,
        -0.0,
        -3.4782799807773485e-13,
        -8.932079007456231e-07,
        5.482470989227221,
        -0.0,
        2.1349530263967023e-06,
        5.482470989226806,
        8.932079007456231e-07,
        -0.0,
        0.0,
        0.0,
        0.0,
        1.0
      ],
      "name": "mesh_400"
    },
    {
      "mesh": 0,
      "name": "mesh_400_mat_68_0"
    },
    {
      "children": [
        6
      ],
      "matrix": [
        5.482470989226878,
        -2.1349530263967307e-06,
        -2.902395975150872e-22,
        -0.0,
        -3.4782799807773485e-13,
        -8.932079007456231e-07,
        5.482470989227221,
        -0.0,
        2.1349530263967023e-06,
        5.482470989226806,
        8.932079007456231e-07,
        -0.0,
        0.0,
        0.0,
        0.0,
        1.0
      ],
      "name": "mesh_401"
    },
    {
      "mesh": 1,
      "name": "mesh_401_mat_67_0"
    },
    {
      "children": [
        8
      ],
      "matrix": [
        5.482470989226878,
        -2.1349530263967307e-06,
        -2.902395975150872e-22,
        -0.0,
        -3.4782799807773485e-13,
        -8.932079007456231e-07,
        5.482470989227221,
        -0.0,
        2.1349530263967023e-06,
        5.482470989226806,
        8.932079007456231e-07,
        -0.0,
        0.0,
        0.0,
        0.0,
        1.0
      ],
      "name": "mesh_402"
    },
    {
      "mesh": 2,
      "name": "mesh_402_mat_66_0"
    }
  ],
  "samplers": [
    {
      "magFilter": 9729,
      "minFilter": 9987,
      "wrapS": 10497,
      "wrapT": 10497
    }
  ],
  "scene": 0,
  "scenes": [
    {
      "name": "Sketchfab_Scene",
      "nodes": [
        0
      ]
    }
  ],
  "textures": [
    {
      "sampler": 0,
      "source": 0
    },
    {
      "sampler": 0,
      "source": 1
    },
    {
      "sampler": 0,
      "source": 2
    }
  ]
}
