# Blender 5.2.0 LTS
# www.blender.org
mtllib falsh_cone.mtl
o MuzzleCone
v 0.000000 1.000000 -0.161151
v 0.382683 0.923880 -0.161151
v 0.707107 0.707107 -0.161151
v 0.923880 0.382683 -0.161151
v 1.000000 0.000000 -0.161151
v 0.923880 -0.382683 -0.161151
v 0.707107 -0.707107 -0.161151
v 0.382683 -0.923880 -0.161151
v 0.000000 -1.000000 -0.161151
v -0.382683 -0.923880 -0.161151
v -0.707107 -0.707107 -0.161151
v -0.923880 -0.382683 -0.161151
v -1.000000 0.000000 -0.161151
v -0.923880 0.382683 -0.161151
v -0.707107 0.707107 -0.161151
v -0.382683 0.923880 -0.161151
v -0.000000 0.500000 -0.042161
v 0.191342 0.461940 -0.042161
v 0.353553 0.353553 -0.042161
v 0.461940 0.191342 -0.042161
v 0.500000 -0.000000 -0.042161
v 0.461940 -0.191342 -0.042161
v 0.353553 -0.353553 -0.042161
v 0.191342 -0.461940 -0.042161
v -0.000000 -0.500000 -0.042161
v -0.191342 -0.461940 -0.042161
v -0.353553 -0.353553 -0.042161
v -0.461940 -0.191342 -0.042161
v -0.500000 -0.000000 -0.042161
v -0.461940 0.191342 -0.042161
v -0.353553 0.353553 -0.042161
v -0.191342 0.461940 -0.042161
v -0.000000 0.051471 -0.000000
v 0.019697 0.047553 -0.000000
v 0.036395 0.036395 -0.000000
v 0.047553 0.019697 -0.000000
v 0.051471 -0.000000 -0.000000
v 0.047553 -0.019697 -0.000000
v 0.036395 -0.036395 -0.000000
v 0.019697 -0.047553 -0.000000
v -0.000000 -0.051471 -0.000000
v -0.019697 -0.047553 -0.000000
v -0.036395 -0.036395 -0.000000
v -0.047553 -0.019697 -0.000000
v -0.051471 -0.000000 -0.000000
v -0.047553 0.019697 -0.000000
v -0.036395 0.036395 -0.000000
v -0.019697 0.047553 -0.000000
vn -0.0000 0.2315 0.9728
vn 0.0886 0.2139 0.9728
vn 0.1637 0.1637 0.9728
vn 0.2139 0.0886 0.9728
vn 0.2315 -0.0000 0.9728
vn 0.2139 -0.0886 0.9728
vn 0.1637 -0.1637 0.9728
vn 0.0886 -0.2139 0.9728
vn -0.0000 -0.2315 0.9728
vn -0.0886 -0.2139 0.9728
vn -0.1637 -0.1637 0.9728
vn -0.2139 -0.0886 0.9728
vn -0.2315 -0.0000 0.9728
vn -0.2139 0.0886 0.9728
vn -0.1637 0.1637 0.9728
vn -0.0886 0.2139 0.9728
vn -0.0000 0.1714 0.9852
vn 0.0656 0.1584 0.9852
vn 0.1212 0.1212 0.9852
vn 0.1584 0.0656 0.9852
vn 0.1714 -0.0000 0.9852
vn 0.1584 -0.0656 0.9852
vn 0.1212 -0.1212 0.9852
vn 0.0656 -0.1584 0.9852
vn -0.0000 -0.1714 0.9852
vn -0.0656 -0.1584 0.9852
vn -0.1212 -0.1212 0.9852
vn -0.1584 -0.0656 0.9852
vn -0.1714 -0.0000 0.9852
vn -0.1584 0.0656 0.9852
vn -0.1212 0.1212 0.9852
vn -0.0656 0.1584 0.9852
vn -0.0000 0.0936 0.9956
vn 0.0358 0.0865 0.9956
vn 0.0662 0.0662 0.9956
vn 0.0865 0.0358 0.9956
vn 0.0936 -0.0000 0.9956
vn 0.0865 -0.0358 0.9956
vn 0.0662 -0.0662 0.9956
vn 0.0358 -0.0865 0.9956
vn -0.0000 -0.0936 0.9956
vn -0.0358 -0.0865 0.9956
vn -0.0662 -0.0662 0.9956
vn -0.0865 -0.0358 0.9956
vn -0.0936 -0.0000 0.9956
vn -0.0865 0.0358 0.9956
vn -0.0662 0.0662 0.9956
vn -0.0358 0.0865 0.9956
vt 0.308658 0.961940
vt 0.404329 0.730970
vt 0.500000 0.750000
vt 0.500000 1.000000
vt 0.146447 0.853553
vt 0.323223 0.676777
vt 0.038060 0.691342
vt 0.269030 0.595671
vt 0.000000 0.500000
vt 0.250000 0.500000
vt 0.038060 0.308658
vt 0.269030 0.404329
vt 0.146447 0.146447
vt 0.323223 0.323223
vt 0.308658 0.038060
vt 0.404329 0.269030
vt 0.500000 0.000000
vt 0.500000 0.250000
vt 0.691342 0.038060
vt 0.595671 0.269030
vt 0.853553 0.146447
vt 0.676777 0.323223
vt 0.961940 0.308658
vt 0.730970 0.404329
vt 1.000000 0.500000
vt 0.750000 0.500000
vt 0.961940 0.691342
vt 0.730970 0.595671
vt 0.853553 0.853553
vt 0.676777 0.676777
vt 0.691342 0.961940
vt 0.595671 0.730970
vt 0.490152 0.523776
vt 0.500000 0.525735
vt 0.481802 0.518198
vt 0.476224 0.509848
vt 0.474265 0.500000
vt 0.476224 0.490152
vt 0.481802 0.481802
vt 0.490152 0.476224
vt 0.500000 0.474265
vt 0.509848 0.476224
vt 0.518198 0.481802
vt 0.523776 0.490152
vt 0.525735 0.500000
vt 0.523776 0.509848
vt 0.518198 0.518198
vt 0.509848 0.523776
s 1
f 16/1/16 32/2/32 17/3/17 1/4/1
f 15/5/15 31/6/31 32/2/32 16/1/16
f 14/7/14 30/8/30 31/6/31 15/5/15
f 13/9/13 29/10/29 30/8/30 14/7/14
f 12/11/12 28/12/28 29/10/29 13/9/13
f 11/13/11 27/14/27 28/12/28 12/11/12
f 10/15/10 26/16/26 27/14/27 11/13/11
f 9/17/9 25/18/25 26/16/26 10/15/10
f 8/19/8 24/20/24 25/18/25 9/17/9
f 7/21/7 23/22/23 24/20/24 8/19/8
f 6/23/6 22/24/22 23/22/23 7/21/7
f 5/25/5 21/26/21 22/24/22 6/23/6
f 4/27/4 20/28/20 21/26/21 5/25/5
f 3/29/3 19/30/19 20/28/20 4/27/4
f 2/31/2 18/32/18 19/30/19 3/29/3
f 1/4/1 17/3/17 18/32/18 2/31/2
f 32/2/32 48/33/48 33/34/33 17/3/17
f 31/6/31 47/35/47 48/33/48 32/2/32
f 30/8/30 46/36/46 47/35/47 31/6/31
f 29/10/29 45/37/45 46/36/46 30/8/30
f 28/12/28 44/38/44 45/37/45 29/10/29
f 27/14/27 43/39/43 44/38/44 28/12/28
f 26/16/26 42/40/42 43/39/43 27/14/27
f 25/18/25 41/41/41 42/40/42 26/16/26
f 24/20/24 40/42/40 41/41/41 25/18/25
f 23/22/23 39/43/39 40/42/40 24/20/24
f 22/24/22 38/44/38 39/43/39 23/22/23
f 21/26/21 37/45/37 38/44/38 22/24/22
f 20/28/20 36/46/36 37/45/37 21/26/21
f 19/30/19 35/47/35 36/46/36 20/28/20
f 18/32/18 34/48/34 35/47/35 19/30/19
f 17/3/17 33/34/33 34/48/34 18/32/18
