{
  "accessors": [
    {
      "bufferView": 2,
      "componentType": 5126,
      "count": 65532,
      "max": [
        1226.630859375,
        2340.882080078125,
        142.7518310546875
      ],
      "min": [
        -2655.127685546875,
        -1930.0540771484375,
        -271.55560302734375
      ],
      "type": "VEC3"
    },
    {
      "bufferView": 2,
      "byteOffset": 786384,
      "componentType": 5126,
      "count": 65532,
      "max": [
        1.0,
        1.0,
        1.0
      ],
      "min": [
        -0.999998927116394,
        -1.0,
        -1.0
      ],
      "type": "VEC3"
    },
    {
      "bufferView": 1,
      "componentType": 5126,
      "count": 65532,
      "max": [
        47102384.0,
        34643820.0
      ],
      "min": [
        -67371472.0,
        -44438468.0
      ],
      "type": "VEC2"
    },
    {
      "bufferView": 1,
      "byteOffset": 524256,
      "componentType": 5126,
      "count": 65532,
      "max": [
        0.0,
        0.0
      ],
      "min": [
        0.0,
        0.0
      ],
      "type": "VEC2"
    },
    {
      "bufferView": 0,
      "componentType": 5125,
      "count": 119325,
      "type": "SCALAR"
    },
    {
      "bufferView": 2,
      "byteOffset": 1572768,
      "componentType": 5126,
      "count": 65532,
      "max": [
        2692.73046875,
        3289.60009765625,
        142.7518310546875
      ],
      "min": [
        -2692.72998046875,
        -3289.5927734375,
        -137.9641571044922
      ],
      "type": "VEC3"
    },
    {
      "bufferView": 2,
      "byteOffset": 2359152,
      "componentType": 5126,
      "count": 65532,
      "max": [
        0.9999992251396179,
        1.0,
        0.9999992251396179
      ],
      "min": [
        -0.9999986886978149,
        -1.0,
        -0.9999985694885254
      ],
      "type": "VEC3"
    },
    {
      "bufferView": 1,
      "byteOffset": 1048512,
      "componentType": 5126,
      "count": 65532,
      "max": [
        0.990239679813385,
        0.9999996423721313
      ],
      "min": [
        0.0,
        0.910377025604248
      ],
      "type": "VEC2"
    },
    {
      "bufferView": 1,
      "byteOffset": 1572768,
      "componentType": 5126,
      "count": 65532,
      "max": [
        0.0,
        0.0
      ],
      "min": [
        0.0,
        0.0
      ],
      "type": "VEC2"
    },
    {
      "bufferView": 0,
      "byteOffset": 477300,
      "componentType": 5125,
      "count": 110220,
      "type": "SCALAR"
    },
    {
      "bufferView": 2,
      "byteOffset": 3145536,
      "componentType": 5126,
      "count": 58855,
      "max": [
        -450.269775390625,
        1890.4014892578125,
        123.37682342529297
      ],
      "min": [
        -2424.011962890625,
        -1249.094970703125,
        -143.25100708007813
      ],
      "type": "VEC3"
    },
    {
      "bufferView": 2,
      "byteOffset": 3851796,
      "componentType": 5126,
      "count": 58855,
      "max": [
        1.0,
        1.0,
        0.999999463558197
      ],
      "min": [
        -1.0,
        -1.0,
        -0.9999996423721313
      ],
      "type": "VEC3"
    },
    {
      "bufferView": 1,
      "byteOffset": 2097024,
      "componentType": 5126,
      "count": 58855,
      "max": [
        0.9912082552909851,
        0.9952181577682495
      ],
      "min": [
        0.006295692175626755,
        0.9109131097793579
      ],
      "type": "VEC2"
    },
    {
      "bufferView": 1,
      "byteOffset": 2567864,
      "componentType": 5126,
      "count": 58855,
      "max": [
        0.0,
        0.0
      ],
      "min": [
        0.0,
        0.0
      ],
      "type": "VEC2"
    },
    {
      "bufferView": 0,
      "byteOffset": 918180,
      "componentType": 5125,
      "count": 104568,
      "type": "SCALAR"
    },
    {
      "bufferView": 2,
      "byteOffset": 4558056,
      "componentType": 5126,
      "count": 101,
      "max": [
        -450.269775390625,
        1723.13134765625,
        -111.62342071533203
      ],
      "min": [
        -1547.27001953125,
        857.0684814453125,
        -112.06092834472656
      ],
      "type": "VEC3"
    },
    {
      "bufferView": 2,
      "byteOffset": 4559268,
      "componentType": 5126,
      "count": 101,
      "max": [
        1.296351183555089e-05,
        -0.0022050277329981327,
        0.999997615814209
      ],
      "min": [
        -1.1713392495948938e-06,
        -0.002205163473263383,
        0.9999975562095642
      ],
      "type": "VEC3"
    },
    {
      "bufferView": 1,
      "byteOffset": 3038704,
      "componentType": 5126,
      "count": 101,
      "max": [
        4.261521339416504,
        5.2232842445373535
      ],
      "min": [
        -3.445651054382324,
        -4.2232842445373535
      ],
      "type": "VEC2"
    },
    {
      "bufferView": 1,
      "byteOffset": 3039512,
      "componentType": 5126,
      "count": 101,
      "max": [
        0.0,
        0.0
      ],
      "min": [
        0.0,
        0.0
      ],
      "type": "VEC2"
    },
    {
      "bufferView": 0,
      "byteOffset": 1336452,
      "componentType": 5125,
      "count": 267,
      "type": "SCALAR"
    },
    {
      "bufferView": 2,
      "byteOffset": 4560480,
      "componentType": 5126,
      "count": 6,
      "max": [
        -823.2694091796875,
        951.5061645507813,
        -112.06092834472656
      ],
      "min": [
        -1162.7073974609375,
        801.5682373046875,
        -112.06092834472656
      ],
      "type": "VEC3"
    },
    {
      "bufferView": 2,
      "byteOffset": 4560552,
      "componentType": 5126,
      "count": 6,
      "max": [
        9.556242730468512e-08,
        -0.002205162774771452,
        0.9999975562095642
      ],
      "min": [
        -1.1461944637858323e-07,
        -0.0022051630076020956,
        0.9999975562095642
      ],
      "type": "VEC3"
    },
    {
      "bufferView": 1,
      "byteOffset": 3040320,
      "componentType": 5126,
      "count": 6,
      "max": [
        22.917957305908203,
        51.88296890258789
      ],
      "min": [
        -22.476234436035156,
        -50.88296890258789
      ],
      "type": "VEC2"
    },
    {
      "bufferView": 1,
      "byteOffset": 3040368,
      "componentType": 5126,
      "count": 6,
      "max": [
        0.0,
        0.0
      ],
      "min": [
        0.0,
        0.0
      ],
      "type": "VEC2"
    },
    {
      "bufferView": 0,
      "byteOffset": 1337520,
      "componentType": 5125,
      "count": 12,
      "type": "SCALAR"
    },
    {
      "bufferView": 2,
      "byteOffset": 4560624,
      "componentType": 5126,
      "count": 3984,
      "max": [
        -916.45166015625,
        929.1718139648438,
        -99.81486511230469
      ],
      "min": [
        -985.052001953125,
        841.0404052734375,
        -112.5262451171875
      ],
      "type": "VEC3"
    },
    {
      "bufferView": 2,
      "byteOffset": 4608432,
      "componentType": 5126,
      "count": 3984,
      "max": [
        1.0,
        1.0,
        1.0
      ],
      "min": [
        -1.0,
        -1.0,
        -1.0
      ],
      "type": "VEC3"
    },
    {
      "bufferView": 1,
      "byteOffset": 3040416,
      "componentType": 5126,
      "count": 3984,
      "max": [
        0.9953500032424927,
        0.9896619915962219
      ],
      "min": [
        0.009674999862909317,
        0.002129971981048584
      ],
      "type": "VEC2"
    },
    {
      "bufferView": 1,
      "byteOffset": 3072288,
      "componentType": 5126,
      "count": 3984,
      "max": [
        0.0,
        0.0
      ],
      "min": [
        0.0,
        0.0
      ],
      "type": "VEC2"
    },
    {
      "bufferView": 0,
      "byteOffset": 1337568,
      "componentType": 5125,
      "count": 7704,
      "type": "SCALAR"
    },
    {
      "bufferView": 2,
      "byteOffset": 4656240,
      "componentType": 5126,
      "count": 11117,
      "max": [
        -439.472900390625,
        2002.678466796875,
        -61.779579162597656
      ],
      "min": [
        -2297.7158203125,
        152.1785888671875,
        -143.24948120117188
      ],
      "type": "VEC3"
    },
    {
      "bufferView": 2,
      "byteOffset": 4789644,
      "componentType": 5126,
      "count": 11117,
      "max": [
        0.9999691843986511,
        0.9999904036521912,
        0.9999976754188538
      ],
      "min": [
        -0.9997404217720032,
        -0.9999614357948303,
        -0.9320446252822876
      ],
      "type": "VEC3"
    },
    {
      "bufferView": 1,
      "byteOffset": 3104160,
      "componentType": 5126,
      "count": 11117,
      "max": [
        37.318275451660156,
        37.975990295410156
      ],
      "min": [
        -36.839500427246094,
        -29.000099182128906
      ],
      "type": "VEC2"
    },
    {
      "bufferView": 1,
      "byteOffset": 3193096,
      "componentType": 5126,
      "count": 11117,
      "max": [
        0.0,
        0.0
      ],
      "min": [
        0.0,
        0.0
      ],
      "type": "VEC2"
    },
    {
      "bufferView": 0,
      "byteOffset": 1368384,
      "componentType": 5125,
      "count": 49887,
      "type": "SCALAR"
    },
    {
      "bufferView": 2,
      "byteOffset": 4923048,
      "componentType": 5126,
      "count": 65533,
      "max": [
        211.536865234375,
        2365.45703125,
        -37.568946838378906
      ],
      "min": [
        -1301.4188232421875,
        219.3140411376953,
        -138.98129272460938
      ],
      "type": "VEC3"
    },
    {
      "bufferView": 2,
      "byteOffset": 5709444,
      "componentType": 5126,
      "count": 65533,
      "max": [
        0.9999897480010986,
        0.9999973177909851,
        1.0
      ],
      "min": [
        -1.0,
        -0.9999883770942688,
        -0.9996636509895325
      ],
      "type": "VEC3"
    },
    {
      "bufferView": 1,
      "byteOffset": 3282032,
      "componentType": 5126,
      "count": 65533,
      "max": [
        1.4811619520187378,
        0.9999439716339111
      ],
      "min": [
        -0.00045200000749900937,
        0.0025569796562194824
      ],
      "type": "VEC2"
    },
    {
      "bufferView": 1,
      "byteOffset": 3806296,
      "componentType": 5126,
      "count": 65533,
      "max": [
        0.0,
        0.0
      ],
      "min": [
        0.0,
        0.0
      ],
      "type": "VEC2"
    },
    {
      "bufferView": 0,
      "byteOffset": 1567932,
      "componentType": 5125,
      "count": 112521,
      "type": "SCALAR"
    },
    {
      "bufferView": 2,
      "byteOffset": 6495840,
      "componentType": 5126,
      "count": 65533,
      "max": [
        195.6600799560547,
        1851.1815185546875,
        -62.42470932006836
      ],
      "min": [
        -1644.5091552734375,
        802.8232421875,
        -142.85711669921875
      ],
      "type": "VEC3"
    },
    {
      "bufferView": 2,
      "byteOffset": 7282236,
      "componentType": 5126,
      "count": 65533,
      "max": [
        1.0,
        0.9999988675117493,
        1.0
      ],
      "min": [
        -1.0,
        -1.0,
        -0.9999313354492188
      ],
      "type": "VEC3"
    },
    {
      "bufferView": 1,
      "byteOffset": 4330560,
      "componentType": 5126,
      "count": 65533,
      "max": [
        1.4811619520187378,
        0.9999439716339111
      ],
      "min": [
        -0.00045200000749900937,
        0.0025569796562194824
      ],
      "type": "VEC2"
    },
    {
      "bufferView": 1,
      "byteOffset": 4854824,
      "componentType": 5126,
      "count": 65533,
      "max": [
        0.0,
        0.0
      ],
      "min": [
        0.0,
        0.0
      ],
      "type": "VEC2"
    },
    {
      "bufferView": 0,
      "byteOffset": 2018016,
      "componentType": 5125,
      "count": 112071,
      "type": "SCALAR"
    },
    {
      "bufferView": 2,
      "byteOffset": 8068632,
      "componentType": 5126,
      "count": 16190,
      "max": [
        -106.8785629272461,
        1524.6240234375,
        -92.26644134521484
      ],
      "min": [
        -910.3392333984375,
        1082.333740234375,
        -117.96484375
      ],
      "type": "VEC3"
    },
    {
      "bufferView": 2,
      "byteOffset": 8262912,
      "componentType": 5126,
      "count": 16190,
      "max": [
        0.9998816847801208,
        0.9999321103096008,
        1.0
      ],
      "min": [
        -0.9999720454216003,
        -0.9999833703041077,
        -0.9987351298332214
      ],
      "type": "VEC3"
    },
    {
      "bufferView": 1,
      "byteOffset": 5379088,
      "componentType": 5126,
      "count": 16190,
      "max": [
        1.4811619520187378,
        0.9999439716339111
      ],
      "min": [
        -0.00045200000749900937,
        0.0025569796562194824
      ],
      "type": "VEC2"
    },
    {
      "bufferView": 1,
      "byteOffset": 5508608,
      "componentType": 5126,
      "count": 16190,
      "max": [
        0.0,
        0.0
      ],
      "min": [
        0.0,
        0.0
      ],
      "type": "VEC2"
    },
    {
      "bufferView": 0,
      "byteOffset": 2466300,
      "componentType": 5125,
      "count": 27660,
      "type": "SCALAR"
    },
    {
      "bufferView": 2,
      "byteOffset": 8457192,
      "componentType": 5126,
      "count": 216,
      "max": [
        212.09597778320313,
        2364.9326171875,
        -81.16439056396484
      ],
      "min": [
        -887.500732421875,
        300.0625305175781,
        -119.7120590209961
      ],
      "type": "VEC3"
    },
    {
      "bufferView": 2,
      "byteOffset": 8459784,
      "componentType": 5126,
      "count": 216,
      "max": [
        0.9992334842681885,
        0.9998542666435242,
        0.9960833787918091
      ],
      "min": [
        -0.9843685626983643,
        -0.9995714426040649,
        -6.265583124331897e-06
      ],
      "type": "VEC3"
    },
    {
      "bufferView": 1,
      "byteOffset": 5638128,
      "componentType": 5126,
      "count": 216,
      "max": [
        1.0644220113754272,
        0.8921800255775452
      ],
      "min": [
        -0.06442199647426605,
        0.10781997442245483
      ],
      "type": "VEC2"
    },
    {
      "bufferView": 1,
      "byteOffset": 5639856,
      "componentType": 5126,
      "count": 216,
      "max": [
        0.0,
        0.0
      ],
      "min": [
        0.0,
        0.0
      ],
      "type": "VEC2"
    },
    {
      "bufferView": 0,
      "byteOffset": 2576940,
      "componentType": 5125,
      "count": 360,
      "type": "SCALAR"
    },
    {
      "bufferView": 2,
      "byteOffset": 8462376,
      "componentType": 5126,
      "count": 5571,
      "max": [
        -1890.5738525390625,
        1693.056396484375,
        -92.8472900390625
      ],
      "min": [
        -2144.837158203125,
        1185.193115234375,
        -115.62337493896484
      ],
      "type": "VEC3"
    },
    {
      "bufferView": 2,
      "byteOffset": 8529228,
      "componentType": 5126,
      "count": 5571,
      "max": [
        1.0,
        1.0,
        0.9999977946281433
      ],
      "min": [
        -1.0,
        -1.0,
        -0.9999976754188538
      ],
      "type": "VEC3"
    },
    {
      "bufferView": 1,
      "byteOffset": 5641584,
      "componentType": 5126,
      "count": 5571,
      "max": [
        3.9829483032226563,
        3.9868903160095215
      ],
      "min": [
        -2.9829487800598145,
        -2.9882168769836426
      ],
      "type": "VEC2"
    },
    {
      "bufferView": 1,
      "byteOffset": 5686152,
      "componentType": 5126,
      "count": 5571,
      "max": [
        0.0,
        0.0
      ],
      "min": [
        0.0,
        0.0
      ],
      "type": "VEC2"
    },
    {
      "bufferView": 0,
      "byteOffset": 2578380,
      "componentType": 5125,
      "count": 9315,
      "type": "SCALAR"
    },
    {
      "bufferView": 2,
      "byteOffset": 8596080,
      "componentType": 5126,
      "count": 720,
      "max": [
        -1890.0736083984375,
        1693.5560302734375,
        -92.472412109375
      ],
      "min": [
        -2145.3369140625,
        1184.6929931640625,
        -104.37328338623047
      ],
      "type": "VEC3"
    },
    {
      "bufferView": 2,
      "byteOffset": 8604720,
      "componentType": 5126,
      "count": 720,
      "max": [
        1.0,
        1.0,
        0.9710972309112549
      ],
      "min": [
        -1.0,
        -1.0,
        -0.999997615814209
      ],
      "type": "VEC3"
    },
    {
      "bufferView": 1,
      "byteOffset": 5730720,
      "componentType": 5126,
      "count": 720,
      "max": [
        4.359663009643555,
        4.518442153930664
      ],
      "min": [
        -3.3947997093200684,
        -3.5184388160705566
      ],
      "type": "VEC2"
    },
    {
      "bufferView": 1,
      "byteOffset": 5736480,
      "componentType": 5126,
      "count": 720,
      "max": [
        0.0,
        0.0
      ],
      "min": [
        0.0,
        0.0
      ],
      "type": "VEC2"
    },
    {
      "bufferView": 0,
      "byteOffset": 2615640,
      "componentType": 5125,
      "count": 1134,
      "type": "SCALAR"
    },
    {
      "bufferView": 2,
      "byteOffset": 8613360,
      "componentType": 5126,
      "count": 41,
      "max": [
        -583.0216064453125,
        1737.349853515625,
        -79.68589782714844
      ],
      "min": [
        -1063.080078125,
        923.0681762695313,
        -110.06095123291016
      ],
      "type": "VEC3"
    },
    {
      "bufferView": 2,
      "byteOffset": 8613852,
      "componentType": 5126,
      "count": 41,
      "max": [
        0.0,
        1.0,
        1.0
      ],
      "min": [
        -0.9999975562095642,
        -0.002205162774771452,
        -1.0569538062554784e-06
      ],
      "type": "VEC3"
    },
    {
      "bufferView": 1,
      "byteOffset": 5742240,
      "componentType": 5126,
      "count": 41,
      "max": [
        0.2756786644458771,
        0.9674046039581299
      ],
      "min": [
        0.0,
        0.0
      ],
      "type": "VEC2"
    },
    {
      "bufferView": 1,
      "byteOffset": 5742568,
      "componentType": 5126,
      "count": 41,
      "max": [
        0.0,
        0.0
      ],
      "min": [
        0.0,
        0.0
      ],
      "type": "VEC2"
    },
    {
      "bufferView": 0,
      "byteOffset": 2620176,
      "componentType": 5125,
      "count": 69,
      "type": "SCALAR"
    },
    {
      "bufferView": 2,
      "byteOffset": 8614344,
      "componentType": 5126,
      "count": 53999,
      "max": [
        659.09716796875,
        2240.50732421875,
        143.25180053710938
      ],
      "min": [
        -2274.58642578125,
        -1760.3948974609375,
        -113.43592834472656
      ],
      "type": "VEC3"
    },
    {
      "bufferView": 2,
      "byteOffset": 9262332,
      "componentType": 5126,
      "count": 53999,
      "max": [
        1.0,
        1.0,
        1.0
      ],
      "min": [
        -1.0,
        -1.0,
        -1.0
      ],
      "type": "VEC3"
    },
    {
      "bufferView": 1,
      "byteOffset": 5742896,
      "componentType": 5126,
      "count": 53999,
      "max": [
        0.990239679813385,
        0.9944413304328918
      ],
      "min": [
        0.04285913333296776,
        0.9255748987197876
      ],
      "type": "VEC2"
    },
    {
      "bufferView": 1,
      "byteOffset": 6174888,
      "componentType": 5126,
      "count": 53999,
      "max": [
        0.0,
        0.0
      ],
      "min": [
        0.0,
        0.0
      ],
      "type": "VEC2"
    },
    {
      "bufferView": 0,
      "byteOffset": 2620452,
      "componentType": 5125,
      "count": 83307,
      "type": "SCALAR"
    },
    {
      "bufferView": 2,
      "byteOffset": 9910320,
      "componentType": 5126,
      "count": 423,
      "max": [
        -1079.14111328125,
        1053.0849609375,
        -57.1558952331543
      ],
      "min": [
        -1993.3231201171875,
        612.9728393554688,
        -143.24853515625
      ],
      "type": "VEC3"
    },
    {
      "bufferView": 2,
      "byteOffset": 9915396,
      "componentType": 5126,
      "count": 423,
      "max": [
        0.9982628226280212,
        0.9981319308280945,
        0.9472154378890991
      ],
      "min": [
        -0.9982560873031616,
        -0.9981496334075928,
        -0.7415812015533447
      ],
      "type": "VEC3"
    },
    {
      "bufferView": 1,
      "byteOffset": 6606880,
      "componentType": 5126,
      "count": 423,
      "max": [
        0.9785127639770508,
        0.982539176940918
      ],
      "min": [
        0.9784603118896484,
        0.982099175453186
      ],
      "type": "VEC2"
    },
    {
      "bufferView": 1,
      "byteOffset": 6610264,
      "componentType": 5126,
      "count": 423,
      "max": [
        0.0,
        0.0
      ],
      "min": [
        0.0,
        0.0
      ],
      "type": "VEC2"
    },
    {
      "bufferView": 0,
      "byteOffset": 2953680,
      "componentType": 5125,
      "count": 627,
      "type": "SCALAR"
    },
    {
      "bufferView": 2,
      "byteOffset": 9920472,
      "componentType": 5126,
      "count": 65533,
      "max": [
        -485.82958984375,
        1697.955322265625,
        1.3201904296875
      ],
      "min": [
        -2241.011474609375,
        320.077880859375,
        -125.82255554199219
      ],
      "type": "VEC3"
    },
    {
      "bufferView": 2,
      "byteOffset": 10706868,
      "componentType": 5126,
      "count": 65533,
      "max": [
        0.9999998807907104,
        1.0,
        0.9999983310699463
      ],
      "min": [
        -0.9999996423721313,
        -1.0,
        -0.999998927116394
      ],
      "type": "VEC3"
    },
    {
      "bufferView": 1,
      "byteOffset": 6613648,
      "componentType": 5126,
      "count": 65533,
      "max": [
        0.968774139881134,
        1.0000005960464478
      ],
      "min": [
        0.0,
        0.9102240204811096
      ],
      "type": "VEC2"
    },
    {
      "bufferView": 1,
      "byteOffset": 7137912,
      "componentType": 5126,
      "count": 65533,
      "max": [
        0.0,
        0.0
      ],
      "min": [
        0.0,
        0.0
      ],
      "type": "VEC2"
    },
    {
      "bufferView": 0,
      "byteOffset": 2956188,
      "componentType": 5125,
      "count": 128847,
      "type": "SCALAR"
    },
    {
      "bufferView": 2,
      "byteOffset": 11493264,
      "componentType": 5126,
      "count": 7497,
      "max": [
        -567.4778442382813,
        1736.719970703125,
        -74.98432159423828
      ],
      "min": [
        -1545.6268310546875,
        873.12353515625,
        -112.8436279296875
      ],
      "type": "VEC3"
    },
    {
      "bufferView": 2,
      "byteOffset": 11583228,
      "componentType": 5126,
      "count": 7497,
      "max": [
        0.9999991059303284,
        1.0,
        0.9999982714653015
      ],
      "min": [
        -0.9999982714653015,
        -1.0,
        -0.9999990463256836
      ],
      "type": "VEC3"
    },
    {
      "bufferView": 1,
      "byteOffset": 7662176,
      "componentType": 5126,
      "count": 7497,
      "max": [
        0.9667634963989258,
        1.0000005960464478
      ],
      "min": [
        0.0,
        0.9116488695144653
      ],
      "type": "VEC2"
    },
    {
      "bufferView": 1,
      "byteOffset": 7722152,
      "componentType": 5126,
      "count": 7497,
      "max": [
        0.0,
        0.0
      ],
      "min": [
        0.0,
        0.0
      ],
      "type": "VEC2"
    },
    {
      "bufferView": 0,
      "byteOffset": 3471576,
      "componentType": 5125,
      "count": 15129,
      "type": "SCALAR"
    },
    {
      "bufferView": 2,
      "byteOffset": 11673192,
      "componentType": 5126,
      "count": 11,
      "max": [
        -227.499267578125,
        1509.5625,
        -112.05944061279297
      ],
      "min": [
        -450.2686767578125,
        322.78558349609375,
        -112.05944061279297
      ],
      "type": "VEC3"
    },
    {
      "bufferView": 2,
      "byteOffset": 11673324,
      "componentType": 5126,
      "count": 11,
      "max": [
        1.0649091564118862e-07,
        -0.002205162774771452,
        0.9999975562095642
      ],
      "min": [
        -1.217879770365471e-07,
        -0.0022051630076020956,
        0.9999975562095642
      ],
      "type": "VEC3"
    },
    {
      "bufferView": 1,
      "byteOffset": 7782128,
      "componentType": 5126,
      "count": 11,
      "max": [
        147.7841796875,
        63.062618255615234
      ],
      "min": [
        119.93800354003906,
        -85.28459930419922
      ],
      "type": "VEC2"
    },
    {
      "bufferView": 1,
      "byteOffset": 7782216,
      "componentType": 5126,
      "count": 11,
      "max": [
        0.0,
        0.0
      ],
      "min": [
        0.0,
        0.0
      ],
      "type": "VEC2"
    },
    {
      "bufferView": 0,
      "byteOffset": 3532092,
      "componentType": 5125,
      "count": 21,
      "type": "SCALAR"
    },
    {
      "bufferView": 2,
      "byteOffset": 11673456,
      "componentType": 5126,
      "count": 74,
      "max": [
        -602.0621948242188,
        1711.200439453125,
        -112.06188201904297
      ],
      "min": [
        -1485.5040283203125,
        963.5682983398438,
        -112.06188201904297
      ],
      "type": "VEC3"
    },
    {
      "bufferView": 2,
      "byteOffset": 11674344,
      "componentType": 5126,
      "count": 74,
      "max": [
        7.3410337790846825e-06,
        -0.0022051590494811535,
        0.9999975562095642
      ],
      "min": [
        -2.624501121317735e-06,
        -0.0022051632404327393,
        0.9999975562095642
      ],
      "type": "VEC3"
    },
    {
      "bufferView": 1,
      "byteOffset": 7782304,
      "componentType": 5126,
      "count": 74,
      "max": [
        32.99995803833008,
        24.99999237060547
      ],
      "min": [
        -24.0,
        -25.0
      ],
      "type": "VEC2"
    },
    {
      "bufferView": 1,
      "byteOffset": 7782896,
      "componentType": 5126,
      "count": 74,
      "max": [
        0.0,
        0.0
      ],
      "min": [
        0.0,
        0.0
      ],
      "type": "VEC2"
    },
    {
      "bufferView": 0,
      "byteOffset": 3532176,
      "componentType": 5125,
      "count": 120,
      "type": "SCALAR"
    },
    {
      "bufferView": 2,
      "byteOffset": 11675232,
      "componentType": 5126,
      "count": 36,
      "max": [
        -626.0694580078125,
        1711.200439453125,
        -112.06188201904297
      ],
      "min": [
        -1425.821044921875,
        881.0236206054688,
        -112.06188201904297
      ],
      "type": "VEC3"
    },
    {
      "bufferView": 2,
      "byteOffset": 11675664,
      "componentType": 5126,
      "count": 36,
      "max": [
        1.0584259513279903e-07,
        -0.002205162774771452,
        0.9999975562095642
      ],
      "min": [
        -1.0577249298648894e-07,
        -0.002205162774771452,
        0.9999975562095642
      ],
      "type": "VEC3"
    },
    {
      "bufferView": 1,
      "byteOffset": 7783488,
      "componentType": 5126,
      "count": 36,
      "max": [
        21.999982833862305,
        24.00014305114746
      ],
      "min": [
        -15.0,
        -32.0
      ],
      "type": "VEC2"
    },
    {
      "bufferView": 1,
      "byteOffset": 7783776,
      "componentType": 5126,
      "count": 36,
      "max": [
        0.0,
        0.0
      ],
      "min": [
        0.0,
        0.0
      ],
      "type": "VEC2"
    },
    {
      "bufferView": 0,
      "byteOffset": 3532656,
      "componentType": 5125,
      "count": 66,
      "type": "SCALAR"
    },
    {
      "bufferView": 2,
      "byteOffset": 11676096,
      "componentType": 5126,
      "count": 1065,
      "max": [
        1794.1085205078125,
        2483.70263671875,
        -112.05943298339844
      ],
      "min": [
        -2600.56884765625,
        -2515.82080078125,
        -114.31188201904297
      ],
      "type": "VEC3"
    },
    {
      "bufferView": 2,
      "byteOffset": 11688876,
      "componentType": 5126,
      "count": 1065,
      "max": [
        0.10552579164505005,
        -0.0021572245750576258,
        0.9999976754188538
      ],
      "min": [
        -0.12057510018348694,
        -0.01971735805273056,
        0.9927018284797668
      ],
      "type": "VEC3"
    },
    {
      "bufferView": 1,
      "byteOffset": 7784064,
      "componentType": 5126,
      "count": 1065,
      "max": [
        132.25022888183594,
        108.31505584716797
      ],
      "min": [
        -114.2509994506836,
        -145.67300415039063
      ],
      "type": "VEC2"
    },
    {
      "bufferView": 1,
      "byteOffset": 7792584,
      "componentType": 5126,
      "count": 1065,
      "max": [
        0.0,
        0.0
      ],
      "min": [
        0.0,
        0.0
      ],
      "type": "VEC2"
    },
    {
      "bufferView": 0,
      "byteOffset": 3532920,
      "componentType": 5125,
      "count": 2190,
      "type": "SCALAR"
    },
    {
      "bufferView": 2,
      "byteOffset": 11701656,
      "componentType": 5126,
      "count": 68,
      "max": [
        -227.483154296875,
        1687.12451171875,
        -111.56188201904297
      ],
      "min": [
        -1716.8612060546875,
        -727.1092529296875,
        -112.06188201904297
      ],
      "type": "VEC3"
    },
    {
      "bufferView": 2,
      "byteOffset": 11702472,
      "componentType": 5126,
      "count": 68,
      "max": [
        1.0584259513279903e-07,
        1.0,
        0.9999975562095642
      ],
      "min": [
        -0.999997615814209,
        -1.0,
        -1.0534314043297854e-07
      ],
      "type": "VEC3"
    },
    {
      "bufferView": 1,
      "byteOffset": 7801104,
      "componentType": 5126,
      "count": 68,
      "max": [
        97.12089538574219,
        3960.32080078125
      ],
      "min": [
        -34.65525817871094,
        -2640.0205078125
      ],
      "type": "VEC2"
    },
    {
      "bufferView": 1,
      "byteOffset": 7801648,
      "componentType": 5126,
      "count": 68,
      "max": [
        0.0,
        0.0
      ],
      "min": [
        0.0,
        0.0
      ],
      "type": "VEC2"
    },
    {
      "bufferView": 0,
      "byteOffset": 3541680,
      "componentType": 5125,
      "count": 132,
      "type": "SCALAR"
    },
    {
      "bufferView": 2,
      "byteOffset": 11703288,
      "componentType": 5126,
      "count": 16110,
      "max": [
        -224.768798828125,
        1515.9088134765625,
        -102.52987670898438
      ],
      "min": [
        -518.4581909179688,
        1470.3448486328125,
        -112.64889526367188
      ],
      "type": "VEC3"
    },
    {
      "bufferView": 2,
      "byteOffset": 11896608,
      "componentType": 5126,
      "count": 16110,
      "max": [
        0.9999784827232361,
        0.9999743103981018,
        0.9999975562095642
      ],
      "min": [
        -0.9999784827232361,
        -0.9999620318412781,
        -0.9999975562095642
      ],
      "type": "VEC3"
    },
    {
      "bufferView": 1,
      "byteOffset": 7802192,
      "componentType": 5126,
      "count": 16110,
      "max": [
        0.9878276586532593,
        0.9917497038841248
      ],
      "min": [
        0.029662394896149635,
        0.011446774005889893
      ],
      "type": "VEC2"
    },
    {
      "bufferView": 1,
      "byteOffset": 7931072,
      "componentType": 5126,
      "count": 16110,
      "max": [
        0.0,
        0.0
      ],
      "min": [
        0.0,
        0.0
      ],
      "type": "VEC2"
    },
    {
      "bufferView": 0,
      "byteOffset": 3542208,
      "componentType": 5125,
      "count": 16110,
      "type": "SCALAR"
    },
    {
      "bufferView": 2,
      "byteOffset": 12089928,
      "componentType": 5126,
      "count": 760,
      "max": [
        1794.1085205078125,
        2345.17236328125,
        -111.56188201904297
      ],
      "min": [
        -2600.56884765625,
        -2515.81201171875,
        -111.56188201904297
      ],
      "type": "VEC3"
    },
    {
      "bufferView": 2,
      "byteOffset": 12099048,
      "componentType": 5126,
      "count": 760,
      "max": [
        1.2625940144062042e-05,
        -0.0021572245750576258,
        0.9999976754188538
      ],
      "min": [
        -2.6988971512764692e-05,
        -0.0022051711566746235,
        0.9999975562095642
      ],
      "type": "VEC3"
    },
    {
      "bufferView": 1,
      "byteOffset": 8059952,
      "componentType": 5126,
      "count": 760,
      "max": [
        400.5583801269531,
        168.57652282714844
      ],
      "min": [
        -149.01699829101563,
        -439.1940002441406
      ],
      "type": "VEC2"
    },
    {
      "bufferView": 1,
      "byteOffset": 8066032,
      "componentType": 5126,
      "count": 760,
      "max": [
        0.0,
        0.0
      ],
      "min": [
        0.0,
        0.0
      ],
      "type": "VEC2"
    },
    {
      "bufferView": 0,
      "byteOffset": 3606648,
      "componentType": 5125,
      "count": 1818,
      "type": "SCALAR"
    },
    {
      "bufferView": 2,
      "byteOffset": 12108168,
      "componentType": 5126,
      "count": 23,
      "max": [
        -1022.4569091796875,
        1184.0623779296875,
        -96.43588256835938
      ],
      "min": [
        -1086.394287109375,
        1162.0625,
        -112.06088256835938
      ],
      "type": "VEC3"
    },
    {
      "bufferView": 2,
      "byteOffset": 12108444,
      "componentType": 5126,
      "count": 23,
      "max": [
        0.999997615814209,
        1.0,
        1.0534314043297854e-07
      ],
      "min": [
        0.0,
        -0.0022051630076020956,
        -1.0584259513279903e-07
      ],
      "type": "VEC3"
    },
    {
      "bufferView": 1,
      "byteOffset": 8072112,
      "componentType": 5126,
      "count": 23,
      "max": [
        24.90447998046875,
        0.012411534786224365
      ],
      "min": [
        -3.1117401123046875,
        -0.9997349977493286
      ],
      "type": "VEC2"
    },
    {
      "bufferView": 1,
      "byteOffset": 8072296,
      "componentType": 5126,
      "count": 23,
      "max": [
        0.0,
        0.0
      ],
      "min": [
        0.0,
        0.0
      ],
      "type": "VEC2"
    },
    {
      "bufferView": 0,
      "byteOffset": 3613920,
      "componentType": 5125,
      "count": 39,
      "type": "SCALAR"
    },
    {
      "bufferView": 2,
      "byteOffset": 12108720,
      "componentType": 5126,
      "count": 744,
      "max": [
        -2149.732177734375,
        1788.0244140625,
        125.01078796386719
      ],
      "min": [
        -2167.393310546875,
        1761.3983154296875,
        -110.24888610839844
      ],
      "type": "VEC3"
    },
    {
      "bufferView": 2,
      "byteOffset": 12117648,
      "componentType": 5126,
      "count": 744,
      "max": [
        0.9999977350234985,
        0.9999905228614807,
        0.9999977350234985
      ],
      "min": [
        -0.9999977350234985,
        -1.0,
        -0.9999979138374329
      ],
      "type": "VEC3"
    },
    {
      "bufferView": 1,
      "byteOffset": 8072480,
      "componentType": 5126,
      "count": 744,
      "max": [
        0.8751906752586365,
        0.9884113073348999
      ],
      "min": [
        0.005953540094196796,
        -0.29638803005218506
      ],
      "type": "VEC2"
    },
    {
      "bufferView": 1,
      "byteOffset": 8078432,
      "componentType": 5126,
      "count": 744,
      "max": [
        0.0,
        0.0
      ],
      "min": [
        0.0,
        0.0
      ],
      "type": "VEC2"
    },
    {
      "bufferView": 0,
      "byteOffset": 3614076,
      "componentType": 5125,
      "count": 1518,
      "type": "SCALAR"
    },
    {
      "bufferView": 2,
      "byteOffset": 12126576,
      "componentType": 5126,
      "count": 5784,
      "max": [
        -449.55706787109375,
        2086.5224609375,
        34.5942268371582
      ],
      "min": [
        -609.3073120117188,
        167.56243896484375,
        -113.49688720703125
      ],
      "type": "VEC3"
    },
    {
      "bufferView": 2,
      "byteOffset": 12195984,
      "componentType": 5126,
      "count": 5784,
      "max": [
        0.9998071789741516,
        1.0,
        0.999997615814209
      ],
      "min": [
        -0.9998104572296143,
        -1.0,
        -0.999997615814209
      ],
      "type": "VEC3"
    },
    {
      "bufferView": 1,
      "byteOffset": 8084384,
      "componentType": 5126,
      "count": 5784,
      "max": [
        0.9992019534111023,
        0.9987617135047913
      ],
      "min": [
        -0.0007962739909999073,
        -0.04958796501159668
      ],
      "type": "VEC2"
    },
    {
      "bufferView": 1,
      "byteOffset": 8130656,
      "componentType": 5126,
      "count": 5784,
      "max": [
        0.0,
        0.0
      ],
      "min": [
        0.0,
        0.0
      ],
      "type": "VEC2"
    },
    {
      "bufferView": 0,
      "byteOffset": 3620148,
      "componentType": 5125,
      "count": 9324,
      "type": "SCALAR"
    },
    {
      "bufferView": 2,
      "byteOffset": 12265392,
      "componentType": 5126,
      "count": 8,
      "max": [
        -1021.7744140625,
        1184.814208984375,
        -96.06158447265625
      ],
      "min": [
        -1086.3992919921875,
        1162.064208984375,
        -100.56158447265625
      ],
      "type": "VEC3"
    },
    {
      "bufferView": 2,
      "byteOffset": 12265488,
      "componentType": 5126,
      "count": 8,
      "max": [
        0.9999976754188538,
        0.9862439632415771,
        1.451312954259265e-07
      ],
      "min": [
        0.0,
        -0.0022601906675845385,
        -0.16529636085033417
      ],
      "type": "VEC3"
    },
    {
      "bufferView": 1,
      "byteOffset": 8176928,
      "componentType": 5126,
      "count": 8,
      "max": [
        14.90527629852295,
        0.014850199222564697
      ],
      "min": [
        -1.81413996219635,
        0.0
      ],
      "type": "VEC2"
    },
    {
      "bufferView": 1,
      "byteOffset": 8176992,
      "componentType": 5126,
      "count": 8,
      "max": [
        0.0,
        0.0
      ],
      "min": [
        0.0,
        0.0
      ],
      "type": "VEC2"
    },
    {
      "bufferView": 0,
      "byteOffset": 3657444,
      "componentType": 5125,
      "count": 12,
      "type": "SCALAR"
    },
    {
      "bufferView": 2,
      "byteOffset": 12265584,
      "componentType": 5126,
      "count": 2066,
      "max": [
        -2029.1844482421875,
        1861.014404296875,
        -95.51187133789063
      ],
      "min": [
        -2173.34130859375,
        1743.024658203125,
        -114.74288940429688
      ],
      "type": "VEC3"
    },
    {
      "bufferView": 2,
      "byteOffset": 12290376,
      "componentType": 5126,
      "count": 2066,
      "max": [
        0.9999691843986511,
        0.9986260533332825,
        0.14500349760055542
      ],
      "min": [
        -0.9998553991317749,
        -0.9993892312049866,
        -0.16963911056518555
      ],
      "type": "VEC3"
    },
    {
      "bufferView": 1,
      "byteOffset": 8177056,
      "componentType": 5126,
      "count": 2066,
      "max": [
        1.0000028610229492,
        1.008019208908081
      ],
      "min": [
        -0.013805399648845196,
        0.0008128881454467773
      ],
      "type": "VEC2"
    },
    {
      "bufferView": 1,
      "byteOffset": 8193584,
      "componentType": 5126,
      "count": 2066,
      "max": [
        0.0,
        0.0
      ],
      "min": [
        0.0,
        0.0
      ],
      "type": "VEC2"
    },
    {
      "bufferView": 0,
      "byteOffset": 3657492,
      "componentType": 5125,
      "count": 3078,
      "type": "SCALAR"
    },
    {
      "bufferView": 2,
      "byteOffset": 12315168,
      "componentType": 5126,
      "count": 2923,
      "max": [
        -1031.456298828125,
        1462.0625,
        -111.20558166503906
      ],
      "min": [
        -1087.456298828125,
        1293.0623779296875,
        -136.86387634277344
      ],
      "type": "VEC3"
    },
    {
      "bufferView": 2,
      "byteOffset": 12350244,
      "componentType": 5126,
      "count": 2923,
      "max": [
        0.8516141772270203,
        0.7160621285438538,
        0.9999977946281433
      ],
      "min": [
        -0.9103255867958069,
        -0.4253886640071869,
        0.396095871925354
      ],
      "type": "VEC3"
    },
    {
      "bufferView": 1,
      "byteOffset": 8210112,
      "componentType": 5126,
      "count": 2923,
      "max": [
        15.176435470581055,
        13.285829544067383
      ],
      "min": [
        12.837499618530273,
        6.242310047149658
      ],
      "type": "VEC2"
    },
    {
      "bufferView": 1,
      "byteOffset": 8233496,
      "componentType": 5126,
      "count": 2923,
      "max": [
        0.0,
        0.0
      ],
      "min": [
        0.0,
        0.0
      ],
      "type": "VEC2"
    },
    {
      "bufferView": 0,
      "byteOffset": 3669804,
      "componentType": 5125,
      "count": 8133,
      "type": "SCALAR"
    },
    {
      "bufferView": 2,
      "byteOffset": 12385320,
      "componentType": 5126,
      "count": 8,
      "max": [
        -1021.7694091796875,
        1184.8123779296875,
        -96.061279296875
      ],
      "min": [
        -1086.394287109375,
        1162.0623779296875,
        -100.561279296875
      ],
      "type": "VEC3"
    },
    {
      "bufferView": 2,
      "byteOffset": 12385416,
      "componentType": 5126,
      "count": 8,
      "max": [
        -0.0018829897744581103,
        0.1760447472333908,
        0.9843807816505432
      ],
      "min": [
        -0.0019178582588210702,
        -0.1760440319776535,
        -0.984386146068573
      ],
      "type": "VEC3"
    },
    {
      "bufferView": 1,
      "byteOffset": 8256880,
      "componentType": 5126,
      "count": 8,
      "max": [
        49.028045654296875,
        -4.156252861022949
      ],
      "min": [
        40.94990158081055,
        -7.290220260620117
      ],
      "type": "VEC2"
    },
    {
      "bufferView": 1,
      "byteOffset": 8256944,
      "componentType": 5126,
      "count": 8,
      "max": [
        0.0,
        0.0
      ],
      "min": [
        0.0,
        0.0
      ],
      "type": "VEC2"
    },
    {
      "bufferView": 0,
      "byteOffset": 3702336,
      "componentType": 5125,
      "count": 12,
      "type": "SCALAR"
    },
    {
      "bufferView": 2,
      "byteOffset": 12385512,
      "componentType": 5126,
      "count": 16212,
      "max": [
        -450.2679443359375,
        1980.4998779296875,
        -82.47354888916016
      ],
      "min": [
        -2272.7998046875,
        165.55987548828125,
        -143.25152587890625
      ],
      "type": "VEC3"
    },
    {
      "bufferView": 2,
      "byteOffset": 12580056,
      "componentType": 5126,
      "count": 16212,
      "max": [
        0.9821142554283142,
        0.9787999391555786,
        0.9999980926513672
      ],
      "min": [
        -0.9872741103172302,
        -0.9202604293823242,
        -0.37543532252311707
      ],
      "type": "VEC3"
    },
    {
      "bufferView": 1,
      "byteOffset": 8257008,
      "componentType": 5126,
      "count": 16212,
      "max": [
        0.9999755620956421,
        0.945276141166687
      ],
      "min": [
        0.0,
        0.0
      ],
      "type": "VEC2"
    },
    {
      "bufferView": 1,
      "byteOffset": 8386704,
      "componentType": 5126,
      "count": 16212,
      "max": [
        0.0,
        0.0
      ],
      "min": [
        0.0,
        0.0
      ],
      "type": "VEC2"
    },
    {
      "bufferView": 0,
      "byteOffset": 3702384,
      "componentType": 5125,
      "count": 88257,
      "type": "SCALAR"
    },
    {
      "bufferView": 2,
      "byteOffset": 12774600,
      "componentType": 5126,
      "count": 6194,
      "max": [
        3799.755859375,
        4809.66259765625,
        688.0758056640625
      ],
      "min": [
        -7030.1787109375,
        -5665.224609375,
        -134.88177490234375
      ],
      "type": "VEC3"
    },
    {
      "bufferView": 2,
      "byteOffset": 12848928,
      "componentType": 5126,
      "count": 6194,
      "max": [
        0.8443517088890076,
        0.8721404671669006,
        0.9999976754188538
      ],
      "min": [
        -0.8224170804023743,
        -1.0,
        0.0
      ],
      "type": "VEC3"
    },
    {
      "bufferView": 1,
      "byteOffset": 8516400,
      "componentType": 5126,
      "count": 6194,
      "max": [
        0.9531989693641663,
        0.9301712512969971
      ],
      "min": [
        0.05635819956660271,
        0.06253141164779663
      ],
      "type": "VEC2"
    },
    {
      "bufferView": 1,
      "byteOffset": 8565952,
      "componentType": 5126,
      "count": 6194,
      "max": [
        0.0,
        0.0
      ],
      "min": [
        0.0,
        0.0
      ],
      "type": "VEC2"
    },
    {
      "bufferView": 0,
      "byteOffset": 4055412,
      "componentType": 5125,
      "count": 32301,
      "type": "SCALAR"
    },
    {
      "bufferView": 2,
      "byteOffset": 12923256,
      "componentType": 5126,
      "count": 9696,
      "max": [
        -220.479248046875,
        2400.50244140625,
        -7.085289001464844
      ],
      "min": [
        -2411.1787109375,
        54.86572265625,
        -132.35267639160156
      ],
      "type": "VEC3"
    },
    {
      "bufferView": 2,
      "byteOffset": 13039608,
      "componentType": 5126,
      "count": 9696,
      "max": [
        0.013639586046338081,
        0.01081058569252491,
        1.0
      ],
      "min": [
        -0.012906155548989773,
        -0.015325112268328667,
        0.9998759031295776
      ],
      "type": "VEC3"
    },
    {
      "bufferView": 1,
      "byteOffset": 8615504,
      "componentType": 5126,
      "count": 9696,
      "max": [
        0.9987442493438721,
        0.9820665121078491
      ],
      "min": [
        0.0036687899846583605,
        0.028388381004333496
      ],
      "type": "VEC2"
    },
    {
      "bufferView": 1,
      "byteOffset": 8693072,
      "componentType": 5126,
      "count": 9696,
      "max": [
        0.0,
        0.0
      ],
      "min": [
        0.0,
        0.0
      ],
      "type": "VEC2"
    },
    {
      "bufferView": 0,
      "byteOffset": 4184616,
      "componentType": 5125,
      "count": 14544,
      "type": "SCALAR"
    },
    {
      "bufferView": 2,
      "byteOffset": 13155960,
      "componentType": 5126,
      "count": 9768,
      "max": [
        -223.670654296875,
        2391.862548828125,
        -0.6959609985351563
      ],
      "min": [
        -2407.4716796875,
        59.613037109375,
        -133.62977600097656
      ],
      "type": "VEC3"
    },
    {
      "bufferView": 2,
      "byteOffset": 13273176,
      "componentType": 5126,
      "count": 9768,
      "max": [
        0.013937967829406261,
        0.01111745834350586,
        1.0
      ],
      "min": [
        -0.01384679414331913,
        -0.01603664644062519,
        0.9998703598976135
      ],
      "type": "VEC3"
    },
    {
      "bufferView": 1,
      "byteOffset": 8770640,
      "componentType": 5126,
      "count": 9768,
      "max": [
        0.9999994039535522,
        1.0007973909378052
      ],
      "min": [
        -0.005011740140616894,
        0.025994718074798584
      ],
      "type": "VEC2"
    },
    {
      "bufferView": 1,
      "byteOffset": 8848784,
      "componentType": 5126,
      "count": 9768,
      "max": [
        0.0,
        0.0
      ],
      "min": [
        0.0,
        0.0
      ],
      "type": "VEC2"
    },
    {
      "bufferView": 0,
      "byteOffset": 4242792,
      "componentType": 5125,
      "count": 14652,
      "type": "SCALAR"
    },
    {
      "bufferView": 2,
      "byteOffset": 13390392,
      "componentType": 5126,
      "count": 1090,
      "max": [
        3689.796142578125,
        2387.5625,
        -125.81133270263672
      ],
      "min": [
        -6937.2041015625,
        -2439.42724609375,
        -143.2518768310547
      ],
      "type": "VEC3"
    },
    {
      "bufferView": 2,
      "byteOffset": 13403472,
      "componentType": 5126,
      "count": 1090,
      "max": [
        0.007561753503978252,
        0.07636506110429764,
        0.9999979734420776
      ],
      "min": [
        -0.04149441793560982,
        -0.024107037112116814,
        0.9962162375450134
      ],
      "type": "VEC3"
    },
    {
      "bufferView": 1,
      "byteOffset": 8926928,
      "componentType": 5126,
      "count": 1090,
      "max": [
        173.7498779296875,
        690.869873046875
      ],
      "min": [
        -429.625,
        -637.5079956054688
      ],
      "type": "VEC2"
    },
    {
      "bufferView": 1,
      "byteOffset": 8935648,
      "componentType": 5126,
      "count": 1090,
      "max": [
        5599.05224609375,
        2585.8291015625
      ],
      "min": [
        -5027.9482421875,
        -2241.16064453125
      ],
      "type": "VEC2"
    },
    {
      "bufferView": 0,
      "byteOffset": 4301400,
      "componentType": 5125,
      "count": 3228,
      "type": "SCALAR"
    }
  ],
  "asset": {
    "extras": {
      "author": "Lightbulb?!BOOM! (https://sketchfab.com/Eggidy_Toilet)",
      "license": "CC-BY-4.0 (http://creativecommons.org/licenses/by/4.0/)",
      "source": "https://sketchfab.com/3d-models/episode-77-map-2aad00acccb04da68dc3cadb0b18907a",
      "title": "Episode 77 Map"
    },
    "generator": "Sketchfab-16.31.0",
    "version": "2.0"
  },
  "bufferViews": [
    {
      "buffer": 0,
      "byteLength": 4314312,
      "name": "floatBufferViews",
      "target": 34963
    },
    {
      "buffer": 0,
      "byteLength": 8944368,
      "byteOffset": 4314312,
      "byteStride": 8,
      "name": "floatBufferViews",
      "target": 34962
    },
    {
      "buffer": 0,
      "byteLength": 13416552,
      "byteOffset": 13258680,
      "byteStride": 12,
      "name": "floatBufferViews",
      "target": 34962
    }
  ],
  "buffers": [
    {
      "byteLength": 26675232,
      "uri": "scene.bin"
    }
  ],
  "extensionsUsed": [
    "KHR_materials_specular"
  ],
  "images": [
    {
      "uri": "textures/c_3dsky_globalpattern.005_baseColor.png"
    },
    {
      "uri": "textures/Material.033_baseColor.png"
    },
    {
      "uri": "textures/Cliffs.005_baseColor.png"
    },
    {
      "uri": "textures/composite_debris.006_baseColor.png"
    },
    {
      "uri": "textures/Material.030_baseColor.jpeg"
    },
    {
      "uri": "textures/EXPOS_ROAD_90DEGREES.005_baseColor.png"
    },
    {
      "uri": "textures/EXPOS_ROAD_DIVIDER_SIDE.005_baseColor.png"
    },
    {
      "uri": "textures/EXPOS_ROAD_NOLINE.005_baseColor.png"
    },
    {
      "uri": "textures/modelsvanderagsnmjolnirsdk_autocombinesintbrickktrima.005_baseColor.png"
    },
    {
      "uri": "textures/MODELSGASWORKSFL_GASWORKS_METAL.005_baseColor.png"
    },
    {
      "uri": "textures/modelspropshr_massiveradio_towerradio_tower_scaffolding.005_baseColor.png"
    },
    {
      "uri": "textures/modelsprops_desertPylon01_Truss.005_baseColor.png"
    },
    {
      "uri": "textures/modelsvanderagsnrp_ashevillecornscorn01_dry.005_baseColor.png"
    },
    {
      "uri": "textures/ROOF_CONCRETE.005_baseColor.png"
    },
    {
      "uri": "textures/c_3dsky_globalterrainpattern.005_baseColor.jpeg"
    },
    {
      "uri": "textures/c_3dskybaseouter.005_baseColor.jpeg"
    },
    {
      "uri": "textures/expos_tree_pine05_lod.005_baseColor.png"
    },
    {
      "uri": "textures/expos_tree_pine_large_lod.003_baseColor.png"
    }
  ],
  "materials": [
    {
      "doubleSided": true,
      "extensions": {
        "KHR_materials_specular": {
          "specularColorFactor": [
            1.0,
            1.0,
            1.0
          ],
          "specularFactor": 1.0
        }
      },
      "name": "c_3dsky_globalpattern.005",
      "pbrMetallicRoughness": {
        "baseColorTexture": {
          "index": 0
        },
        "roughnessFactor": 0.5691199786944111
      }
    },
    {
      "doubleSided": true,
      "name": "asphalt_02c_gen3_pm.001",
      "pbrMetallicRoughness": {
        "baseColorFactor": [
          0.02877,
          0.02877,
          0.02877,
          1.0
        ],
        "metallicFactor": 0.0
      }
    },
    {
      "doubleSided": true,
      "name": "Material.033",
      "pbrMetallicRoughness": {
        "baseColorTexture": {
          "index": 1
        },
        "metallicFactor": 0.0,
        "roughnessFactor": 0.8211145618000169
      }
    },
    {
      "doubleSided": true,
      "name": "cargo_container01.002",
      "pbrMetallicRoughness": {
        "baseColorFactor": [
          0.521334,
          0.813017,
          0.54317,
          1.0
        ],
        "metallicFactor": 0.0,
        "roughnessFactor": 0.8208143774542634
      }
    },
    {
      "doubleSided": true,
      "name": "Cliffs.005",
      "pbrMetallicRoughness": {
        "baseColorTexture": {
          "index": 2
        },
        "metallicFactor": 0.0
      }
    },
    {
      "doubleSided": true,
      "name": "composite_debris.006",
      "pbrMetallicRoughness": {
        "baseColorTexture": {
          "index": 3
        },
        "metallicFactor": 0.0,
        "roughnessFactor": 0.8409498402400595
      }
    },
    {
      "doubleSided": true,
      "name": "concretefloor020a",
      "pbrMetallicRoughness": {
        "baseColorFactor": [
          0.718441,
          0.72288,
          0.744031,
          1.0
        ],
        "metallicFactor": 0.0,
        "roughnessFactor": 0.8227883893946057
      }
    },
    {
      "doubleSided": true,
      "name": "Material.029",
      "pbrMetallicRoughness": {
        "baseColorFactor": [
          0.8,
          0.8,
          0.8,
          1.0
        ],
        "metallicFactor": 0.0,
        "roughnessFactor": 0.8211145618000169
      }
    },
    {
      "doubleSided": true,
      "name": "Material.030",
      "pbrMetallicRoughness": {
        "baseColorTexture": {
          "index": 4
        },
        "metallicFactor": 0.0
      }
    },
    {
      "doubleSided": true,
      "name": "Material.031",
      "pbrMetallicRoughness": {
        "baseColorFactor": [
          0.037189,
          0.037189,
          0.037189,
          1.0
        ],
        "metallicFactor": 0.0,
        "roughnessFactor": 0.9914584832053176
      }
    },
    {
      "doubleSided": true,
      "name": "Material.035",
      "pbrMetallicRoughness": {
        "baseColorFactor": [
          0.180146,
          0.180146,
          0.180146,
          1.0
        ],
        "metallicFactor": 0.0
      }
    },
    {
      "doubleSided": true,
      "name": "Material.032",
      "pbrMetallicRoughness": {
        "baseColorFactor": [
          0.00625938,
          0.00625938,
          0.00625938,
          1.0
        ],
        "metallicFactor": 0.0
      }
    },
    {
      "doubleSided": true,
      "name": "c_3dsky_globalpattern_nocull.005",
      "pbrMetallicRoughness": {
        "baseColorTexture": {
          "index": 0
        },
        "metallicFactor": 0.0
      }
    },
    {
      "doubleSided": true,
      "name": "asphalt_02c_gen3_pm.005",
      "pbrMetallicRoughness": {
        "baseColorTexture": {
          "index": 1
        },
        "metallicFactor": 0.0
      }
    },
    {
      "doubleSided": true,
      "name": "EXPOS_ROAD_90DEGREES.005",
      "pbrMetallicRoughness": {
        "baseColorTexture": {
          "index": 5
        },
        "metallicFactor": 0.0
      }
    },
    {
      "doubleSided": true,
      "name": "EXPOS_ROAD_DIVIDER_SIDE.005",
      "pbrMetallicRoughness": {
        "baseColorTexture": {
          "index": 6
        },
        "metallicFactor": 0.0
      }
    },
    {
      "doubleSided": true,
      "name": "EXPOS_ROAD_NOLINE.005",
      "pbrMetallicRoughness": {
        "baseColorTexture": {
          "index": 7
        },
        "metallicFactor": 0.0
      }
    },
    {
      "doubleSided": true,
      "name": "modelsvanderagsnmjolnirsdk_autocombinesintbrickktrima.005",
      "pbrMetallicRoughness": {
        "baseColorTexture": {
          "index": 8
        },
        "metallicFactor": 0.0
      }
    },
    {
      "doubleSided": true,
      "name": "modelsvanderagsnrp_ashevillebarriersc_barrier_03c.005",
      "pbrMetallicRoughness": {
        "baseColorFactor": [
          0.331371,
          0.331371,
          0.331371,
          1.0
        ],
        "metallicFactor": 0.0
      }
    },
    {
      "doubleSided": true,
      "name": "modelsvanderagsnmjolnirsdk_autocombinestiles_04c.005",
      "pbrMetallicRoughness": {
        "baseColorFactor": [
          0.104981,
          0.104981,
          0.104981,
          1.0
        ],
        "metallicFactor": 0.0
      }
    },
    {
      "doubleSided": true,
      "name": "MODELSGASWORKSFL_GASWORKS_METAL.005",
      "pbrMetallicRoughness": {
        "baseColorTexture": {
          "index": 9
        },
        "metallicFactor": 0.0
      }
    },
    {
      "doubleSided": true,
      "name": "modelspropshr_massiveradio_towerradio_tower_scaffolding.005",
      "pbrMetallicRoughness": {
        "baseColorTexture": {
          "index": 10
        },
        "metallicFactor": 0.0
      }
    },
    {
      "doubleSided": true,
      "name": "modelsprops_desertPylon01_Truss.005",
      "pbrMetallicRoughness": {
        "baseColorTexture": {
          "index": 11
        },
        "metallicFactor": 0.0
      }
    },
    {
      "doubleSided": true,
      "name": "MODELSVANDERAGSNPORTC_EXPOS_RUST_METAL_TAN_09B.005",
      "pbrMetallicRoughness": {
        "baseColorTexture": {
          "index": 9
        },
        "metallicFactor": 0.0
      }
    },
    {
      "doubleSided": true,
      "name": "modelsvanderagsnrp_ashevillecornscorn01_dry.005",
      "pbrMetallicRoughness": {
        "baseColorTexture": {
          "index": 12
        },
        "metallicFactor": 0.0
      }
    },
    {
      "doubleSided": true,
      "name": "modelsvanderagsnrp_ashevilleroadexpos_road_noline.005",
      "pbrMetallicRoughness": {
        "baseColorTexture": {
          "index": 7
        },
        "metallicFactor": 0.0
      }
    },
    {
      "doubleSided": true,
      "name": "ROOF_CONCRETE.005",
      "pbrMetallicRoughness": {
        "baseColorTexture": {
          "index": 13
        },
        "metallicFactor": 0.0
      }
    },
    {
      "doubleSided": true,
      "name": "c_3dsky_globalterrainpattern.005",
      "pbrMetallicRoughness": {
        "baseColorTexture": {
          "index": 14
        },
        "metallicFactor": 0.0
      }
    },
    {
      "doubleSided": true,
      "name": "c_3dskybaseouter.005",
      "pbrMetallicRoughness": {
        "baseColorTexture": {
          "index": 15
        },
        "metallicFactor": 0.0
      }
    },
    {
      "alphaCutoff": 0.49161011853447456,
      "alphaMode": "MASK",
      "doubleSided": true,
      "name": "expos_tree_pine05_lod.005",
      "pbrMetallicRoughness": {
        "baseColorTexture": {
          "index": 16
        },
        "metallicFactor": 0.0
      }
    },
    {
      "alphaCutoff": 0.9288668185824513,
      "alphaMode": "MASK",
      "doubleSided": true,
      "name": "expos_tree_pine_large_lod.003",
      "pbrMetallicRoughness": {
        "baseColorTexture": {
          "index": 17
        },
        "metallicFactor": 0.0
      }
    },
    {
      "doubleSided": true,
      "extensions": {
        "KHR_materials_specular": {
          "specularColorFactor": [
            1.0,
            1.0,
            1.0
          ],
          "specularFactor": 1.0
        }
      },
      "name": "Pond_water_-_procedural.004",
      "pbrMetallicRoughness": {
        "baseColorFactor": [
          0.018171733257392547,
          0.036933110354191424,
          0.19885960249848839,
          1.0
        ],
        "roughnessFactor": 0.0
      }
    }
  ],
  "meshes": [
    {
      "name": "Culling_Meshes_Main_c_3dsky_globalpattern_0.017_c_3dsky_globalpattern.005_0",
      "primitives": [
        {
          "attributes": {
            "NORMAL": 1,
            "POSITION": 0,
            "TEXCOORD_0": 2,
            "TEXCOORD_1": 3
          },
          "indices": 4,
          "material": 0,
          "mode": 4
        }
      ]
    },
    {
      "name": "Culling_Meshes_Main_c_3dsky_globalpattern_0.017_c_3dsky_globalpattern.005_0",
      "primitives": [
        {
          "attributes": {
            "NORMAL": 6,
            "POSITION": 5,
            "TEXCOORD_0": 7,
            "TEXCOORD_1": 8
          },
          "indices": 9,
          "material": 0,
          "mode": 4
        }
      ]
    },
    {
      "name": "Culling_Meshes_Main_c_3dsky_globalpattern_0.017_c_3dsky_globalpattern.005_0",
      "primitives": [
        {
          "attributes": {
            "NORMAL": 11,
            "POSITION": 10,
            "TEXCOORD_0": 12,
            "TEXCOORD_1": 13
          },
          "indices": 14,
          "material": 0,
          "mode": 4
        }
      ]
    },
    {
      "name": "Culling_Meshes_Main_c_3dsky_globalpattern_0.017_asphalt_02c_gen3_pm.001_0",
      "primitives": [
        {
          "attributes": {
            "NORMAL": 16,
            "POSITION": 15,
            "TEXCOORD_0": 17,
            "TEXCOORD_1": 18
          },
          "indices": 19,
          "material": 1,
          "mode": 4
        }
      ]
    },
    {
      "name": "Culling_Meshes_Main_c_3dsky_globalpattern_0.017_Material.033_0",
      "primitives": [
        {
          "attributes": {
            "NORMAL": 21,
            "POSITION": 20,
            "TEXCOORD_0": 22,
            "TEXCOORD_1": 23
          },
          "indices": 24,
          "material": 2,
          "mode": 4
        }
      ]
    },
    {
      "name": "Culling_Meshes_Main_c_3dsky_globalpattern_0.017_cargo_container01.002_0",
      "primitives": [
        {
          "attributes": {
            "NORMAL": 26,
            "POSITION": 25,
            "TEXCOORD_0": 27,
            "TEXCOORD_1": 28
          },
          "indices": 29,
          "material": 3,
          "mode": 4
        }
      ]
    },
    {
      "name": "Culling_Meshes_Main_c_3dsky_globalpattern_0.017_Cliffs.005_0",
      "primitives": [
        {
          "attributes": {
            "NORMAL": 31,
            "POSITION": 30,
            "TEXCOORD_0": 32,
            "TEXCOORD_1": 33
          },
          "indices": 34,
          "material": 4,
          "mode": 4
        }
      ]
    },
    {
      "name": "Culling_Meshes_Main_c_3dsky_globalpattern_0.017_composite_debris.006_0",
      "primitives": [
        {
          "attributes": {
            "NORMAL": 36,
            "POSITION": 35,
            "TEXCOORD_0": 37,
            "TEXCOORD_1": 38
          },
          "indices": 39,
          "material": 5,
          "mode": 4
        }
      ]
    },
    {
      "name": "Culling_Meshes_Main_c_3dsky_globalpattern_0.017_composite_debris.006_0",
      "primitives": [
        {
          "attributes": {
            "NORMAL": 41,
            "POSITION": 40,
            "TEXCOORD_0": 42,
            "TEXCOORD_1": 43
          },
          "indices": 44,
          "material": 5,
          "mode": 4
        }
      ]
    },
    {
      "name": "Culling_Meshes_Main_c_3dsky_globalpattern_0.017_composite_debris.006_0",
      "primitives": [
        {
          "attributes": {
            "NORMAL": 46,
            "POSITION": 45,
            "TEXCOORD_0": 47,
            "TEXCOORD_1": 48
          },
          "indices": 49,
          "material": 5,
          "mode": 4
        }
      ]
    },
    {
      "name": "Culling_Meshes_Main_c_3dsky_globalpattern_0.017_concretefloor020a_0",
      "primitives": [
        {
          "attributes": {
            "NORMAL": 51,
            "POSITION": 50,
            "TEXCOORD_0": 52,
            "TEXCOORD_1": 53
          },
          "indices": 54,
          "material": 6,
          "mode": 4
        }
      ]
    },
    {
      "name": "Culling_Meshes_Main_c_3dsky_globalpattern_0.017_Material.029_0",
      "primitives": [
        {
          "attributes": {
            "NORMAL": 56,
            "POSITION": 55,
            "TEXCOORD_0": 57,
            "TEXCOORD_1": 58
          },
          "indices": 59,
          "material": 7,
          "mode": 4
        }
      ]
    },
    {
      "name": "Culling_Meshes_Main_c_3dsky_globalpattern_0.017_Material.030_0",
      "primitives": [
        {
          "attributes": {
            "NORMAL": 61,
            "POSITION": 60,
            "TEXCOORD_0": 62,
            "TEXCOORD_1": 63
          },
          "indices": 64,
          "material": 8,
          "mode": 4
        }
      ]
    },
    {
      "name": "Culling_Meshes_Main_c_3dsky_globalpattern_0.017_Material.031_0",
      "primitives": [
        {
          "attributes": {
            "NORMAL": 66,
            "POSITION": 65,
            "TEXCOORD_0": 67,
            "TEXCOORD_1": 68
          },
          "indices": 69,
          "material": 9,
          "mode": 4
        }
      ]
    },
    {
      "name": "Culling_Meshes_Main_c_3dsky_globalpattern_0.017_Material.035_0",
      "primitives": [
        {
          "attributes": {
            "NORMAL": 71,
            "POSITION": 70,
            "TEXCOORD_0": 72,
            "TEXCOORD_1": 73
          },
          "indices": 74,
          "material": 10,
          "mode": 4
        }
      ]
    },
    {
      "name": "Culling_Meshes_Main_c_3dsky_globalpattern_0.017_Material.032_0",
      "primitives": [
        {
          "attributes": {
            "NORMAL": 76,
            "POSITION": 75,
            "TEXCOORD_0": 77,
            "TEXCOORD_1": 78
          },
          "indices": 79,
          "material": 11,
          "mode": 4
        }
      ]
    },
    {
      "name": "Culling_Meshes_Main_c_3dsky_globalpattern_0.017_c_3dsky_globalpattern_nocull.005_0",
      "primitives": [
        {
          "attributes": {
            "NORMAL": 81,
            "POSITION": 80,
            "TEXCOORD_0": 82,
            "TEXCOORD_1": 83
          },
          "indices": 84,
          "material": 12,
          "mode": 4
        }
      ]
    },
    {
      "name": "Culling_Meshes_Main_c_3dsky_globalpattern_0.017_c_3dsky_globalpattern_nocull.005_0",
      "primitives": [
        {
          "attributes": {
            "NORMAL": 86,
            "POSITION": 85,
            "TEXCOORD_0": 87,
            "TEXCOORD_1": 88
          },
          "indices": 89,
          "material": 12,
          "mode": 4
        }
      ]
    },
    {
      "name": "Culling_Meshes_Main_c_3dsky_globalpattern_0.017_asphalt_02c_gen3_pm.005_0",
      "primitives": [
        {
          "attributes": {
            "NORMAL": 91,
            "POSITION": 90,
            "TEXCOORD_0": 92,
            "TEXCOORD_1": 93
          },
          "indices": 94,
          "material": 13,
          "mode": 4
        }
      ]
    },
    {
      "name": "Culling_Meshes_Main_c_3dsky_globalpattern_0.017_EXPOS_ROAD_90DEGREES.005_0",
      "primitives": [
        {
          "attributes": {
            "NORMAL": 96,
            "POSITION": 95,
            "TEXCOORD_0": 97,
            "TEXCOORD_1": 98
          },
          "indices": 99,
          "material": 14,
          "mode": 4
        }
      ]
    },
    {
      "name": "Culling_Meshes_Main_c_3dsky_globalpattern_0.017_EXPOS_ROAD_DIVIDER_SIDE.005_0",
      "primitives": [
        {
          "attributes": {
            "NORMAL": 101,
            "POSITION": 100,
            "TEXCOORD_0": 102,
            "TEXCOORD_1": 103
          },
          "indices": 104,
          "material": 15,
          "mode": 4
        }
      ]
    },
    {
      "name": "Culling_Meshes_Main_c_3dsky_globalpattern_0.017_EXPOS_ROAD_NOLINE.005_0",
      "primitives": [
        {
          "attributes": {
            "NORMAL": 106,
            "POSITION": 105,
            "TEXCOORD_0": 107,
            "TEXCOORD_1": 108
          },
          "indices": 109,
          "material": 16,
          "mode": 4
        }
      ]
    },
    {
      "name": "Culling_Meshes_Main_c_3dsky_globalpattern_0.017_models/vanderagsn/mjolnirsdk_autocombines/intbrickktrima.005_0",
      "primitives": [
        {
          "attributes": {
            "NORMAL": 111,
            "POSITION": 110,
            "TEXCOORD_0": 112,
            "TEXCOORD_1": 113
          },
          "indices": 114,
          "material": 17,
          "mode": 4
        }
      ]
    },
    {
      "name": "Culling_Meshes_Main_c_3dsky_globalpattern_0.017_models\\vanderagsn\\rp_asheville\\barriers\\c_barrier_03c.005_0",
      "primitives": [
        {
          "attributes": {
            "NORMAL": 116,
            "POSITION": 115,
            "TEXCOORD_0": 117,
            "TEXCOORD_1": 118
          },
          "indices": 119,
          "material": 18,
          "mode": 4
        }
      ]
    },
    {
      "name": "Culling_Meshes_Main_c_3dsky_globalpattern_0.017_models/vanderagsn/mjolnirsdk_autocombines/tiles_04c.005_0",
      "primitives": [
        {
          "attributes": {
            "NORMAL": 121,
            "POSITION": 120,
            "TEXCOORD_0": 122,
            "TEXCOORD_1": 123
          },
          "indices": 124,
          "material": 19,
          "mode": 4
        }
      ]
    },
    {
      "name": "Culling_Meshes_Main_c_3dsky_globalpattern_0.017_MODELS/GASWORKS/FL_GASWORKS_METAL.005_0",
      "primitives": [
        {
          "attributes": {
            "NORMAL": 126,
            "POSITION": 125,
            "TEXCOORD_0": 127,
            "TEXCOORD_1": 128
          },
          "indices": 129,
          "material": 20,
          "mode": 4
        }
      ]
    },
    {
      "name": "Culling_Meshes_Main_c_3dsky_globalpattern_0.017_models/props/hr_massive/radio_tower/radio_tower_scaffolding.005_0",
      "primitives": [
        {
          "attributes": {
            "NORMAL": 131,
            "POSITION": 130,
            "TEXCOORD_0": 132,
            "TEXCOORD_1": 133
          },
          "indices": 134,
          "material": 21,
          "mode": 4
        }
      ]
    },
    {
      "name": "Culling_Meshes_Main_c_3dsky_globalpattern_0.017_models/props_desert/Pylon01_Truss.005_0",
      "primitives": [
        {
          "attributes": {
            "NORMAL": 136,
            "POSITION": 135,
            "TEXCOORD_0": 137,
            "TEXCOORD_1": 138
          },
          "indices": 139,
          "material": 22,
          "mode": 4
        }
      ]
    },
    {
      "name": "Culling_Meshes_Main_c_3dsky_globalpattern_0.017_MODELS/VANDERAGSN/PORT/C_EXPOS_RUST_METAL_TAN_09B.005_0",
      "primitives": [
        {
          "attributes": {
            "NORMAL": 141,
            "POSITION": 140,
            "TEXCOORD_0": 142,
            "TEXCOORD_1": 143
          },
          "indices": 144,
          "material": 23,
          "mode": 4
        }
      ]
    },
    {
      "name": "Culling_Meshes_Main_c_3dsky_globalpattern_0.017_models/vanderagsn/rp_asheville/corns/corn01_dry.005_0",
      "primitives": [
        {
          "attributes": {
            "NORMAL": 146,
            "POSITION": 145,
            "TEXCOORD_0": 147,
            "TEXCOORD_1": 148
          },
          "indices": 149,
          "material": 24,
          "mode": 4
        }
      ]
    },
    {
      "name": "Culling_Meshes_Main_c_3dsky_globalpattern_0.017_models/vanderagsn/rp_asheville/road/expos_road_noline.005_0",
      "primitives": [
        {
          "attributes": {
            "NORMAL": 151,
            "POSITION": 150,
            "TEXCOORD_0": 152,
            "TEXCOORD_1": 153
          },
          "indices": 154,
          "material": 25,
          "mode": 4
        }
      ]
    },
    {
      "name": "Culling_Meshes_Main_c_3dsky_globalpattern_0.017_ROOF_CONCRETE.005_0",
      "primitives": [
        {
          "attributes": {
            "NORMAL": 156,
            "POSITION": 155,
            "TEXCOORD_0": 157,
            "TEXCOORD_1": 158
          },
          "indices": 159,
          "material": 26,
          "mode": 4
        }
      ]
    },
    {
      "name": "Culling_Meshes_Main_c_3dsky_globalpattern_0.017_c_3dsky_globalterrainpattern.005_0",
      "primitives": [
        {
          "attributes": {
            "NORMAL": 161,
            "POSITION": 160,
            "TEXCOORD_0": 162,
            "TEXCOORD_1": 163
          },
          "indices": 164,
          "material": 27,
          "mode": 4
        }
      ]
    },
    {
      "name": "Culling_Meshes_Main_c_3dsky_globalpattern_0.017_c_3dskybaseouter.005_0",
      "primitives": [
        {
          "attributes": {
            "NORMAL": 166,
            "POSITION": 165,
            "TEXCOORD_0": 167,
            "TEXCOORD_1": 168
          },
          "indices": 169,
          "material": 28,
          "mode": 4
        }
      ]
    },
    {
      "name": "Culling_Meshes_Main_c_3dsky_globalpattern_0.017_expos_tree_pine05_lod.005_0",
      "primitives": [
        {
          "attributes": {
            "NORMAL": 171,
            "POSITION": 170,
            "TEXCOORD_0": 172,
            "TEXCOORD_1": 173
          },
          "indices": 174,
          "material": 29,
          "mode": 4
        }
      ]
    },
    {
      "name": "Culling_Meshes_Main_c_3dsky_globalpattern_0.017_expos_tree_pine_large_lod.003_0",
      "primitives": [
        {
          "attributes": {
            "NORMAL": 176,
            "POSITION": 175,
            "TEXCOORD_0": 177,
            "TEXCOORD_1": 178
          },
          "indices": 179,
          "material": 30,
          "mode": 4
        }
      ]
    },
    {
      "name": "Culling_Meshes_Main_c_3dsky_globalpattern_0.017_Pond water - procedural.004_0",
      "primitives": [
        {
          "attributes": {
            "NORMAL": 181,
            "POSITION": 180,
            "TEXCOORD_0": 182,
            "TEXCOORD_1": 183
          },
          "indices": 184,
          "material": 31,
          "mode": 4
        }
      ]
    }
  ],
  "nodes": [
    {
      "children": [
        1
      ],
      "matrix": [
        1.0,
        0.0,
        0.0,
        0.0,
        0.0,
        2.220446049250313e-16,
        -1.0,
        0.0,
        0.0,
        1.0,
        2.220446049250313e-16,
        0.0,
        0.0,
        0.0,
        0.0,
        1.0
      ],
      "name": "Sketchfab_model"
    },
    {
      "children": [
        2
      ],
      "matrix": [
        0.009999999776482582,
        0.0,
        0.0,
        0.0,
        0.0,
        0.0,
        0.009999999776482582,
        0.0,
        0.0,
        -0.009999999776482582,
        0.0,
        0.0,
        0.0,
        0.0,
        0.0,
        1.0
      ],
      "name": "d99fa3ddc259421aabcd71d5ff76e379.fbx"
    },
    {
      "children": [
        3,
        45,
        48,
        51,
        54,
        57,
        60
      ],
      "name": "RootNode"
    },
    {
      "children": [
        4
      ],
      "matrix": [
        0.1610141396522522,
        0.0,
        0.0,
        0.0,
        0.0,
        -2.623253302383615e-08,
        -0.16101413965225006,
        0.0,
        0.0,
        0.16101413965225006,
        -2.623253302383615e-08,
        0.0,
        1635.464111328125,
        14069.18359375,
        0.0018903190502896905,
        1.0
      ],
      "name": "13a0da4f941e4a728ffcbaeb868b3f45.fbx"
    },
    {
      "children": [
        5
      ],
      "matrix": [
        1.0,
        0.0,
        0.0,
        0.0,
        0.0,
        1.0,
        2.646977960169688e-23,
        0.0,
        0.0,
        -2.646977960169688e-23,
        1.0,
        0.0,
        0.0009765625,
        0.0,
        0.0078125,
        1.0
      ],
      "name": "RootNode"
    },
    {
      "children": [
        6
      ],
      "matrix": [
        16.0,
        0.0,
        0.0,
        0.0,
        0.0,
        16.0,
        0.0,
        0.0,
        0.0,
        0.0,
        16.0,
        0.0,
        0.0009765625,
        0.0,
        0.0078125,
        1.0
      ],
      "name": "Group 1"
    },
    {
      "children": [
        7
      ],
      "matrix": [
        16.0,
        0.0,
        0.0,
        0.0,
        0.0,
        16.0,
        -4.2351647362715e-22,
        0.0,
        0.0,
        4.2351647362715e-22,
        16.0,
        0.0,
        22564.298828125,
        -15961.0,
        -5230.90966796875,
        1.0
      ],
      "name": "Culling_Meshes_Main"
    },
    {
      "children": [
        8,
        9,
        10,
        11,
        12,
        13,
        14,
        15,
        16,
        17,
        18,
        19,
        20,
        21,
        22,
        23,
        24,
        25,
        26,
        27,
        28,
        29,
        30,
        31,
        32,
        33,
        34,
        35,
        36,
        37,
        38,
        39,
        40,
        41,
        42,
        43,
        44
      ],
      "matrix": [
        1.0,
        0.0,
        0.0,
        0.0,
        0.0,
        1.0,
        0.0,
        0.0,
        0.0,
        0.0,
        1.0,
        0.0,
        0.0,
        0.0,
        2.2026824808563106e-13,
        1.0
      ],
      "name": "Culling_Meshes_Main_c_3dsky_globalpattern_0.017"
    },
    {
      "mesh": 0,
      "name": "Culling_Meshes_Main_c_3dsky_globalpattern_0.017_c_3dsky_globalpattern.005_0"
    },
    {
      "mesh": 1,
      "name": "Culling_Meshes_Main_c_3dsky_globalpattern_0.017_c_3dsky_globalpattern.005_0"
    },
    {
      "mesh": 2,
      "name": "Culling_Meshes_Main_c_3dsky_globalpattern_0.017_c_3dsky_globalpattern.005_0"
    },
    {
      "mesh": 3,
      "name": "Culling_Meshes_Main_c_3dsky_globalpattern_0.017_asphalt_02c_gen3_pm.001_0"
    },
    {
      "mesh": 4,
      "name": "Culling_Meshes_Main_c_3dsky_globalpattern_0.017_Material.033_0"
    },
    {
      "mesh": 5,
      "name": "Culling_Meshes_Main_c_3dsky_globalpattern_0.017_cargo_container01.002_0"
    },
    {
      "mesh": 6,
      "name": "Culling_Meshes_Main_c_3dsky_globalpattern_0.017_Cliffs.005_0"
    },
    {
      "mesh": 7,
      "name": "Culling_Meshes_Main_c_3dsky_globalpattern_0.017_composite_debris.006_0"
    },
    {
      "mesh": 8,
      "name": "Culling_Meshes_Main_c_3dsky_globalpattern_0.017_composite_debris.006_0"
    },
    {
      "mesh": 9,
      "name": "Culling_Meshes_Main_c_3dsky_globalpattern_0.017_composite_debris.006_0"
    },
    {
      "mesh": 10,
      "name": "Culling_Meshes_Main_c_3dsky_globalpattern_0.017_concretefloor020a_0"
    },
    {
      "mesh": 11,
      "name": "Culling_Meshes_Main_c_3dsky_globalpattern_0.017_Material.029_0"
    },
    {
      "mesh": 12,
      "name": "Culling_Meshes_Main_c_3dsky_globalpattern_0.017_Material.030_0"
    },
    {
      "mesh": 13,
      "name": "Culling_Meshes_Main_c_3dsky_globalpattern_0.017_Material.031_0"
    },
    {
      "mesh": 14,
      "name": "Culling_Meshes_Main_c_3dsky_globalpattern_0.017_Material.035_0"
    },
    {
      "mesh": 15,
      "name": "Culling_Meshes_Main_c_3dsky_globalpattern_0.017_Material.032_0"
    },
    {
      "mesh": 16,
      "name": "Culling_Meshes_Main_c_3dsky_globalpattern_0.017_c_3dsky_globalpattern_nocull.005_0"
    },
    {
      "mesh": 17,
      "name": "Culling_Meshes_Main_c_3dsky_globalpattern_0.017_c_3dsky_globalpattern_nocull.005_0"
    },
    {
      "mesh": 18,
      "name": "Culling_Meshes_Main_c_3dsky_globalpattern_0.017_asphalt_02c_gen3_pm.005_0"
    },
    {
      "mesh": 19,
      "name": "Culling_Meshes_Main_c_3dsky_globalpattern_0.017_EXPOS_ROAD_90DEGREES.005_0"
    },
    {
      "mesh": 20,
      "name": "Culling_Meshes_Main_c_3dsky_globalpattern_0.017_EXPOS_ROAD_DIVIDER_SIDE.005_0"
    },
    {
      "mesh": 21,
      "name": "Culling_Meshes_Main_c_3dsky_globalpattern_0.017_EXPOS_ROAD_NOLINE.005_0"
    },
    {
      "mesh": 22,
      "name": "Culling_Meshes_Main_c_3dsky_globalpattern_0.017_models/vanderagsn/mjolnirsdk_autocombines/intbrickktrima.005_0"
    },
    {
      "mesh": 23,
      "name": "Culling_Meshes_Main_c_3dsky_globalpattern_0.017_models\\vanderagsn\\rp_asheville\\barriers\\c_barrier_03c.005_0"
    },
    {
      "mesh": 24,
      "name": "Culling_Meshes_Main_c_3dsky_globalpattern_0.017_models/vanderagsn/mjolnirsdk_autocombines/tiles_04c.005_0"
    },
    {
      "mesh": 25,
      "name": "Culling_Meshes_Main_c_3dsky_globalpattern_0.017_MODELS/GASWORKS/FL_GASWORKS_METAL.005_0"
    },
    {
      "mesh": 26,
      "name": "Culling_Meshes_Main_c_3dsky_globalpattern_0.017_models/props/hr_massive/radio_tower/radio_tower_scaffolding.005_0"
    },
    {
      "mesh": 27,
      "name": "Culling_Meshes_Main_c_3dsky_globalpattern_0.017_models/props_desert/Pylon01_Truss.005_0"
    },
    {
      "mesh": 28,
      "name": "Culling_Meshes_Main_c_3dsky_globalpattern_0.017_MODELS/VANDERAGSN/PORT/C_EXPOS_RUST_METAL_TAN_09B.005_0"
    },
    {
      "mesh": 29,
      "name": "Culling_Meshes_Main_c_3dsky_globalpattern_0.017_models/vanderagsn/rp_asheville/corns/corn01_dry.005_0"
    },
    {
      "mesh": 30,
      "name": "Culling_Meshes_Main_c_3dsky_globalpattern_0.017_models/vanderagsn/rp_asheville/road/expos_road_noline.005_0"
    },
    {
      "mesh": 31,
      "name": "Culling_Meshes_Main_c_3dsky_globalpattern_0.017_ROOF_CONCRETE.005_0"
    },
    {
      "mesh": 32,
      "name": "Culling_Meshes_Main_c_3dsky_globalpattern_0.017_c_3dsky_globalterrainpattern.005_0"
    },
    {
      "mesh": 33,
      "name": "Culling_Meshes_Main_c_3dsky_globalpattern_0.017_c_3dskybaseouter.005_0"
    },
    {
      "mesh": 34,
      "name": "Culling_Meshes_Main_c_3dsky_globalpattern_0.017_expos_tree_pine05_lod.005_0"
    },
    {
      "mesh": 35,
      "name": "Culling_Meshes_Main_c_3dsky_globalpattern_0.017_expos_tree_pine_large_lod.003_0"
    },
    {
      "mesh": 36,
      "name": "Culling_Meshes_Main_c_3dsky_globalpattern_0.017_Pond water - procedural.004_0"
    },
    {
      "children": [
        46
      ],
      "matrix": [
        513.9036254882813,
        0.0,
        0.0,
        0.0,
        0.0,
        513.9036254882798,
        -3.879864517634814e-05,
        0.0,
        0.0,
        3.879864517634814e-05,
        513.9036254882798,
        0.0,
        17891.751953125,
        -2899.4345703125,
        4797.87158203125,
        1.0
      ],
      "name": "Spot"
    },
    {
      "children": [
        47
      ],
      "matrix": [
        1.0,
        0.0,
        0.0,
        0.0,
        0.0,
        2.220446049250313e-16,
        1.0,
        0.0,
        0.0,
        -1.0,
        2.220446049250313e-16,
        0.0,
        0.0,
        0.0,
        0.0,
        1.0
      ],
      "name": "Object_46"
    },
    {
      "name": "Object_47"
    },
    {
      "children": [
        49
      ],
      "matrix": [
        513.9036254882813,
        0.0,
        0.0,
        0.0,
        0.0,
        513.9036254882798,
        -3.879864517634814e-05,
        0.0,
        0.0,
        3.879864517634814e-05,
        513.9036254882798,
        0.0,
        15558.068359375,
        -2899.4345703125,
        4747.54931640625,
        1.0
      ],
      "name": "Spot.001"
    },
    {
      "children": [
        50
      ],
      "matrix": [
        1.0,
        0.0,
        0.0,
        0.0,
        0.0,
        2.220446049250313e-16,
        1.0,
        0.0,
        0.0,
        -1.0,
        2.220446049250313e-16,
        0.0,
        0.0,
        0.0,
        0.0,
        1.0
      ],
      "name": "Object_49"
    },
    {
      "name": "Object_50"
    },
    {
      "children": [
        52
      ],
      "matrix": [
        513.9036254882813,
        0.0,
        0.0,
        0.0,
        0.0,
        513.9036254882798,
        -3.879864517634814e-05,
        0.0,
        0.0,
        3.879864517634814e-05,
        513.9036254882798,
        0.0,
        20590.26953125,
        -2899.4345703125,
        4684.64697265625,
        1.0
      ],
      "name": "Spot.002"
    },
    {
      "children": [
        53
      ],
      "matrix": [
        1.0,
        0.0,
        0.0,
        0.0,
        0.0,
        2.220446049250313e-16,
        1.0,
        0.0,
        0.0,
        -1.0,
        2.220446049250313e-16,
        0.0,
        0.0,
        0.0,
        0.0,
        1.0
      ],
      "name": "Object_52"
    },
    {
      "name": "Object_53"
    },
    {
      "children": [
        55
      ],
      "matrix": [
        513.9036254882813,
        0.0,
        0.0,
        0.0,
        0.0,
        513.9036254882798,
        -3.879864517634814e-05,
        0.0,
        0.0,
        3.879864517634814e-05,
        513.9036254882798,
        0.0,
        22540.24609375,
        -2899.4345703125,
        4705.6142578125,
        1.0
      ],
      "name": "Spot.003"
    },
    {
      "children": [
        56
      ],
      "matrix": [
        1.0,
        0.0,
        0.0,
        0.0,
        0.0,
        2.220446049250313e-16,
        1.0,
        0.0,
        0.0,
        -1.0,
        2.220446049250313e-16,
        0.0,
        0.0,
        0.0,
        0.0,
        1.0
      ],
      "name": "Object_55"
    },
    {
      "name": "Object_56"
    },
    {
      "children": [
        58
      ],
      "matrix": [
        36.39518729047225,
        92.56221375070082,
        -10.374339866276742,
        0.0,
        -93.13646556141966,
        36.047729824771935,
        -5.114680557643723,
        0.0,
        -0.9945476202106285,
        11.523791924238756,
        99.32882069468533,
        0.0,
        2721.3759765625,
        4249.4189453125,
        29.78165054321289,
        1.0
      ],
      "name": "Sun"
    },
    {
      "children": [
        59
      ],
      "matrix": [
        1.0,
        0.0,
        0.0,
        0.0,
        0.0,
        2.220446049250313e-16,
        1.0,
        0.0,
        0.0,
        -1.0,
        2.220446049250313e-16,
        0.0,
        0.0,
        0.0,
        0.0,
        1.0
      ],
      "name": "Object_58"
    },
    {
      "name": "Object_59"
    },
    {
      "children": [
        61
      ],
      "matrix": [
        25.334102573397765,
        -36.125421428421554,
        -89.73927330561298,
        0.0,
        -96.11980228847197,
        1.0678632541516686,
        -27.565254870860358,
        0.0,
        10.916357214090183,
        93.24062202006898,
        -34.45315008072567,
        0.0,
        2848.575439453125,
        3732.1796875,
        -6758.443359375,
        1.0
      ],
      "name": "Sun.001"
    },
    {
      "children": [
        62
      ],
      "matrix": [
        1.0,
        0.0,
        0.0,
        0.0,
        0.0,
        2.220446049250313e-16,
        1.0,
        0.0,
        0.0,
        -1.0,
        2.220446049250313e-16,
        0.0,
        0.0,
        0.0,
        0.0,
        1.0
      ],
      "name": "Object_61"
    },
    {
      "name": "Object_62"
    }
  ],
  "samplers": [
    {
      "magFilter": 9729,
      "minFilter": 9987,
      "wrapS": 10497,
      "wrapT": 10497
    }
  ],
  "scene": 0,
  "scenes": [
    {
      "name": "Sketchfab_Scene",
      "nodes": [
        0
      ]
    }
  ],
  "textures": [
    {
      "sampler": 0,
      "source": 0
    },
    {
      "sampler": 0,
      "source": 1
    },
    {
      "sampler": 0,
      "source": 2
    },
    {
      "sampler": 0,
      "source": 3
    },
    {
      "sampler": 0,
      "source": 4
    },
    {
      "sampler": 0,
      "source": 5
    },
    {
      "sampler": 0,
      "source": 6
    },
    {
      "sampler": 0,
      "source": 7
    },
    {
      "sampler": 0,
      "source": 8
    },
    {
      "sampler": 0,
      "source": 9
    },
    {
      "sampler": 0,
      "source": 10
    },
    {
      "sampler": 0,
      "source": 11
    },
    {
      "sampler": 0,
      "source": 12
    },
    {
      "sampler": 0,
      "source": 13
    },
    {
      "sampler": 0,
      "source": 14
    },
    {
      "sampler": 0,
      "source": 15
    },
    {
      "sampler": 0,
      "source": 16
    },
    {
      "sampler": 0,
      "source": 17
    }
  ]
}
